ISO-10303-21;
HEADER;
/* Generated by software containing ST-Developer
 * from STEP Tools, Inc. (www.steptools.com) 
 */
/* OPTION: using custom renumber hook */

FILE_DESCRIPTION(
/* description */ ('STEP AP242 Edition 2',
'CAx-IF Rec.Pracs.---Representation and Presentation of Product Manufa
cturing Information (PMI)---4.0---2014-10-13',
'CAx-IF Rec.Pracs.---3D Tessellated Geometry---0.4---2014-09-14','2;1',
'CAx-IF Rec.Pracs.---User Defined Attributes---1.5---2016-08-15'),
/* implementation_level */ '2;1');

FILE_NAME(
/* name */ 'Magno65 parts - Bottom2',
/* time_stamp */ '2026-07-13T17:40:52Z',
/* author */ (''),
/* organization */ (''),
/* preprocessor_version */ 'ST-DEVELOPER v20',
/* originating_system */ 'ONSHAPE BY PTC INC, 1.217',
/* authorisation */ '  ');

FILE_SCHEMA (('AP242_MANAGED_MODEL_BASED_3D_ENGINEERING_MIM_LF { 1 0 10303 442 3 1 4 }'));
ENDSEC;

DATA;
#10=SHAPE_REPRESENTATION_RELATIONSHIP('','',#969,#11);
#11=ADVANCED_BREP_SHAPE_REPRESENTATION('',(#967),#1563);
#12=CYLINDRICAL_SURFACE('',#991,0.00814375);
#13=CYLINDRICAL_SURFACE('',#994,0.00814375);
#14=CYLINDRICAL_SURFACE('',#997,0.0026);
#15=CYLINDRICAL_SURFACE('',#999,0.0026);
#16=CYLINDRICAL_SURFACE('',#1001,0.0026);
#17=CYLINDRICAL_SURFACE('',#1003,0.0026);
#18=CYLINDRICAL_SURFACE('',#1006,0.00814375);
#19=CYLINDRICAL_SURFACE('',#1015,0.00814375);
#20=CIRCLE('',#974,0.00814375);
#21=CIRCLE('',#975,0.00814375);
#22=CIRCLE('',#976,0.00814375);
#23=CIRCLE('',#978,0.0026);
#24=CIRCLE('',#980,0.0026);
#25=CIRCLE('',#982,0.0026);
#26=CIRCLE('',#984,0.0026);
#27=CIRCLE('',#992,0.00814375);
#28=CIRCLE('',#995,0.00814375);
#29=CIRCLE('',#998,0.0026);
#30=CIRCLE('',#1000,0.0026);
#31=CIRCLE('',#1002,0.0026);
#32=CIRCLE('',#1004,0.0026);
#33=CIRCLE('',#1007,0.00814375);
#34=CIRCLE('',#1016,0.00814375);
#35=CIRCLE('',#1017,0.00814375);
#36=ORIENTED_EDGE('',*,*,#296,.T.);
#37=ORIENTED_EDGE('',*,*,#297,.T.);
#38=ORIENTED_EDGE('',*,*,#298,.T.);
#39=ORIENTED_EDGE('',*,*,#299,.T.);
#40=ORIENTED_EDGE('',*,*,#300,.F.);
#41=ORIENTED_EDGE('',*,*,#301,.F.);
#42=ORIENTED_EDGE('',*,*,#302,.T.);
#43=ORIENTED_EDGE('',*,*,#303,.F.);
#44=ORIENTED_EDGE('',*,*,#304,.F.);
#45=ORIENTED_EDGE('',*,*,#305,.T.);
#46=ORIENTED_EDGE('',*,*,#306,.T.);
#47=ORIENTED_EDGE('',*,*,#307,.T.);
#48=ORIENTED_EDGE('',*,*,#308,.F.);
#49=ORIENTED_EDGE('',*,*,#309,.F.);
#50=ORIENTED_EDGE('',*,*,#310,.T.);
#51=ORIENTED_EDGE('',*,*,#311,.F.);
#52=ORIENTED_EDGE('',*,*,#312,.F.);
#53=ORIENTED_EDGE('',*,*,#302,.F.);
#54=ORIENTED_EDGE('',*,*,#313,.F.);
#55=ORIENTED_EDGE('',*,*,#314,.F.);
#56=ORIENTED_EDGE('',*,*,#306,.F.);
#57=ORIENTED_EDGE('',*,*,#315,.T.);
#58=ORIENTED_EDGE('',*,*,#316,.T.);
#59=ORIENTED_EDGE('',*,*,#317,.F.);
#60=ORIENTED_EDGE('',*,*,#310,.F.);
#61=ORIENTED_EDGE('',*,*,#318,.F.);
#62=ORIENTED_EDGE('',*,*,#319,.F.);
#63=ORIENTED_EDGE('',*,*,#320,.F.);
#64=ORIENTED_EDGE('',*,*,#321,.F.);
#65=ORIENTED_EDGE('',*,*,#322,.F.);
#66=ORIENTED_EDGE('',*,*,#323,.T.);
#67=ORIENTED_EDGE('',*,*,#324,.F.);
#68=ORIENTED_EDGE('',*,*,#325,.T.);
#69=ORIENTED_EDGE('',*,*,#326,.T.);
#70=ORIENTED_EDGE('',*,*,#327,.T.);
#71=ORIENTED_EDGE('',*,*,#328,.F.);
#72=ORIENTED_EDGE('',*,*,#329,.F.);
#73=ORIENTED_EDGE('',*,*,#298,.F.);
#74=ORIENTED_EDGE('',*,*,#330,.T.);
#75=ORIENTED_EDGE('',*,*,#331,.F.);
#76=ORIENTED_EDGE('',*,*,#332,.T.);
#77=ORIENTED_EDGE('',*,*,#333,.T.);
#78=ORIENTED_EDGE('',*,*,#334,.T.);
#79=ORIENTED_EDGE('',*,*,#335,.T.);
#80=ORIENTED_EDGE('',*,*,#336,.T.);
#81=ORIENTED_EDGE('',*,*,#337,.T.);
#82=ORIENTED_EDGE('',*,*,#338,.F.);
#83=ORIENTED_EDGE('',*,*,#339,.F.);
#84=ORIENTED_EDGE('',*,*,#340,.T.);
#85=ORIENTED_EDGE('',*,*,#338,.T.);
#86=ORIENTED_EDGE('',*,*,#341,.F.);
#87=ORIENTED_EDGE('',*,*,#342,.F.);
#88=ORIENTED_EDGE('',*,*,#343,.F.);
#89=ORIENTED_EDGE('',*,*,#344,.T.);
#90=ORIENTED_EDGE('',*,*,#345,.F.);
#91=ORIENTED_EDGE('',*,*,#325,.F.);
#92=ORIENTED_EDGE('',*,*,#346,.T.);
#93=ORIENTED_EDGE('',*,*,#347,.T.);
#94=ORIENTED_EDGE('',*,*,#343,.T.);
#95=ORIENTED_EDGE('',*,*,#324,.T.);
#96=ORIENTED_EDGE('',*,*,#348,.F.);
#97=ORIENTED_EDGE('',*,*,#349,.T.);
#98=ORIENTED_EDGE('',*,*,#346,.F.);
#99=ORIENTED_EDGE('',*,*,#323,.F.);
#100=ORIENTED_EDGE('',*,*,#321,.T.);
#101=ORIENTED_EDGE('',*,*,#350,.T.);
#102=ORIENTED_EDGE('',*,*,#336,.F.);
#103=ORIENTED_EDGE('',*,*,#351,.F.);
#104=ORIENTED_EDGE('',*,*,#352,.F.);
#105=ORIENTED_EDGE('',*,*,#353,.F.);
#106=ORIENTED_EDGE('',*,*,#313,.T.);
#107=ORIENTED_EDGE('',*,*,#301,.T.);
#108=ORIENTED_EDGE('',*,*,#354,.F.);
#109=ORIENTED_EDGE('',*,*,#307,.F.);
#110=ORIENTED_EDGE('',*,*,#314,.T.);
#111=ORIENTED_EDGE('',*,*,#353,.T.);
#112=ORIENTED_EDGE('',*,*,#355,.F.);
#113=ORIENTED_EDGE('',*,*,#356,.F.);
#114=ORIENTED_EDGE('',*,*,#318,.T.);
#115=ORIENTED_EDGE('',*,*,#309,.T.);
#116=ORIENTED_EDGE('',*,*,#357,.F.);
#117=ORIENTED_EDGE('',*,*,#358,.F.);
#118=ORIENTED_EDGE('',*,*,#319,.T.);
#119=ORIENTED_EDGE('',*,*,#356,.T.);
#120=ORIENTED_EDGE('',*,*,#332,.F.);
#121=ORIENTED_EDGE('',*,*,#359,.T.);
#122=ORIENTED_EDGE('',*,*,#333,.F.);
#123=ORIENTED_EDGE('',*,*,#360,.T.);
#124=ORIENTED_EDGE('',*,*,#334,.F.);
#125=ORIENTED_EDGE('',*,*,#361,.T.);
#126=ORIENTED_EDGE('',*,*,#335,.F.);
#127=ORIENTED_EDGE('',*,*,#362,.T.);
#128=ORIENTED_EDGE('',*,*,#350,.F.);
#129=ORIENTED_EDGE('',*,*,#320,.T.);
#130=ORIENTED_EDGE('',*,*,#358,.T.);
#131=ORIENTED_EDGE('',*,*,#363,.F.);
#132=ORIENTED_EDGE('',*,*,#364,.F.);
#133=ORIENTED_EDGE('',*,*,#365,.T.);
#134=ORIENTED_EDGE('',*,*,#341,.T.);
#135=ORIENTED_EDGE('',*,*,#337,.F.);
#136=ORIENTED_EDGE('',*,*,#366,.F.);
#137=ORIENTED_EDGE('',*,*,#299,.F.);
#138=ORIENTED_EDGE('',*,*,#329,.T.);
#139=ORIENTED_EDGE('',*,*,#367,.T.);
#140=ORIENTED_EDGE('',*,*,#368,.F.);
#141=ORIENTED_EDGE('',*,*,#369,.F.);
#142=ORIENTED_EDGE('',*,*,#370,.F.);
#143=ORIENTED_EDGE('',*,*,#347,.F.);
#144=ORIENTED_EDGE('',*,*,#370,.T.);
#145=ORIENTED_EDGE('',*,*,#371,.F.);
#146=ORIENTED_EDGE('',*,*,#372,.F.);
#147=ORIENTED_EDGE('',*,*,#344,.F.);
#148=ORIENTED_EDGE('',*,*,#368,.T.);
#149=ORIENTED_EDGE('',*,*,#349,.F.);
#150=ORIENTED_EDGE('',*,*,#373,.F.);
#151=ORIENTED_EDGE('',*,*,#374,.F.);
#152=ORIENTED_EDGE('',*,*,#375,.F.);
#153=ORIENTED_EDGE('',*,*,#376,.T.);
#154=ORIENTED_EDGE('',*,*,#377,.F.);
#155=ORIENTED_EDGE('',*,*,#373,.T.);
#156=ORIENTED_EDGE('',*,*,#378,.F.);
#157=ORIENTED_EDGE('',*,*,#379,.T.);
#158=ORIENTED_EDGE('',*,*,#380,.F.);
#159=ORIENTED_EDGE('',*,*,#372,.T.);
#160=ORIENTED_EDGE('',*,*,#381,.F.);
#161=ORIENTED_EDGE('',*,*,#382,.F.);
#162=ORIENTED_EDGE('',*,*,#383,.F.);
#163=ORIENTED_EDGE('',*,*,#384,.F.);
#164=ORIENTED_EDGE('',*,*,#385,.F.);
#165=ORIENTED_EDGE('',*,*,#386,.F.);
#166=ORIENTED_EDGE('',*,*,#387,.F.);
#167=ORIENTED_EDGE('',*,*,#388,.F.);
#168=ORIENTED_EDGE('',*,*,#389,.F.);
#169=ORIENTED_EDGE('',*,*,#378,.T.);
#170=ORIENTED_EDGE('',*,*,#371,.T.);
#171=ORIENTED_EDGE('',*,*,#369,.T.);
#172=ORIENTED_EDGE('',*,*,#374,.T.);
#173=ORIENTED_EDGE('',*,*,#377,.T.);
#174=ORIENTED_EDGE('',*,*,#328,.T.);
#175=ORIENTED_EDGE('',*,*,#390,.T.);
#176=ORIENTED_EDGE('',*,*,#391,.F.);
#177=ORIENTED_EDGE('',*,*,#367,.F.);
#178=ORIENTED_EDGE('',*,*,#392,.F.);
#179=ORIENTED_EDGE('',*,*,#393,.T.);
#180=ORIENTED_EDGE('',*,*,#394,.T.);
#181=ORIENTED_EDGE('',*,*,#364,.T.);
#182=ORIENTED_EDGE('',*,*,#362,.F.);
#183=ORIENTED_EDGE('',*,*,#361,.F.);
#184=ORIENTED_EDGE('',*,*,#360,.F.);
#185=ORIENTED_EDGE('',*,*,#359,.F.);
#186=ORIENTED_EDGE('',*,*,#395,.T.);
#187=ORIENTED_EDGE('',*,*,#396,.T.);
#188=ORIENTED_EDGE('',*,*,#392,.T.);
#189=ORIENTED_EDGE('',*,*,#363,.T.);
#190=ORIENTED_EDGE('',*,*,#357,.T.);
#191=ORIENTED_EDGE('',*,*,#355,.T.);
#192=ORIENTED_EDGE('',*,*,#308,.T.);
#193=ORIENTED_EDGE('',*,*,#354,.T.);
#194=ORIENTED_EDGE('',*,*,#352,.T.);
#195=ORIENTED_EDGE('',*,*,#300,.T.);
#196=ORIENTED_EDGE('',*,*,#366,.T.);
#197=ORIENTED_EDGE('',*,*,#391,.T.);
#198=ORIENTED_EDGE('',*,*,#397,.T.);
#199=ORIENTED_EDGE('',*,*,#398,.T.);
#200=ORIENTED_EDGE('',*,*,#399,.T.);
#201=ORIENTED_EDGE('',*,*,#400,.T.);
#202=ORIENTED_EDGE('',*,*,#401,.T.);
#203=ORIENTED_EDGE('',*,*,#402,.T.);
#204=ORIENTED_EDGE('',*,*,#403,.T.);
#205=ORIENTED_EDGE('',*,*,#394,.F.);
#206=ORIENTED_EDGE('',*,*,#404,.T.);
#207=ORIENTED_EDGE('',*,*,#405,.F.);
#208=ORIENTED_EDGE('',*,*,#342,.T.);
#209=ORIENTED_EDGE('',*,*,#365,.F.);
#210=ORIENTED_EDGE('',*,*,#406,.F.);
#211=ORIENTED_EDGE('',*,*,#326,.F.);
#212=ORIENTED_EDGE('',*,*,#345,.T.);
#213=ORIENTED_EDGE('',*,*,#380,.T.);
#214=ORIENTED_EDGE('',*,*,#405,.T.);
#215=ORIENTED_EDGE('',*,*,#407,.T.);
#216=ORIENTED_EDGE('',*,*,#375,.T.);
#217=ORIENTED_EDGE('',*,*,#348,.T.);
#218=ORIENTED_EDGE('',*,*,#322,.T.);
#219=ORIENTED_EDGE('',*,*,#351,.T.);
#220=ORIENTED_EDGE('',*,*,#339,.T.);
#221=ORIENTED_EDGE('',*,*,#340,.F.);
#222=ORIENTED_EDGE('',*,*,#395,.F.);
#223=ORIENTED_EDGE('',*,*,#408,.T.);
#224=ORIENTED_EDGE('',*,*,#382,.T.);
#225=ORIENTED_EDGE('',*,*,#409,.F.);
#226=ORIENTED_EDGE('',*,*,#403,.F.);
#227=ORIENTED_EDGE('',*,*,#410,.T.);
#228=ORIENTED_EDGE('',*,*,#383,.T.);
#229=ORIENTED_EDGE('',*,*,#408,.F.);
#230=ORIENTED_EDGE('',*,*,#402,.F.);
#231=ORIENTED_EDGE('',*,*,#411,.T.);
#232=ORIENTED_EDGE('',*,*,#384,.T.);
#233=ORIENTED_EDGE('',*,*,#410,.F.);
#234=ORIENTED_EDGE('',*,*,#401,.F.);
#235=ORIENTED_EDGE('',*,*,#412,.T.);
#236=ORIENTED_EDGE('',*,*,#385,.T.);
#237=ORIENTED_EDGE('',*,*,#411,.F.);
#238=ORIENTED_EDGE('',*,*,#400,.F.);
#239=ORIENTED_EDGE('',*,*,#413,.T.);
#240=ORIENTED_EDGE('',*,*,#386,.T.);
#241=ORIENTED_EDGE('',*,*,#412,.F.);
#242=ORIENTED_EDGE('',*,*,#399,.F.);
#243=ORIENTED_EDGE('',*,*,#414,.T.);
#244=ORIENTED_EDGE('',*,*,#387,.T.);
#245=ORIENTED_EDGE('',*,*,#413,.F.);
#246=ORIENTED_EDGE('',*,*,#398,.F.);
#247=ORIENTED_EDGE('',*,*,#415,.T.);
#248=ORIENTED_EDGE('',*,*,#388,.T.);
#249=ORIENTED_EDGE('',*,*,#414,.F.);
#250=ORIENTED_EDGE('',*,*,#327,.F.);
#251=ORIENTED_EDGE('',*,*,#406,.T.);
#252=ORIENTED_EDGE('',*,*,#379,.F.);
#253=ORIENTED_EDGE('',*,*,#389,.T.);
#254=ORIENTED_EDGE('',*,*,#415,.F.);
#255=ORIENTED_EDGE('',*,*,#397,.F.);
#256=ORIENTED_EDGE('',*,*,#390,.F.);
#257=ORIENTED_EDGE('',*,*,#404,.F.);
#258=ORIENTED_EDGE('',*,*,#393,.F.);
#259=ORIENTED_EDGE('',*,*,#396,.F.);
#260=ORIENTED_EDGE('',*,*,#409,.T.);
#261=ORIENTED_EDGE('',*,*,#381,.T.);
#262=ORIENTED_EDGE('',*,*,#376,.F.);
#263=ORIENTED_EDGE('',*,*,#407,.F.);
#264=ORIENTED_EDGE('',*,*,#312,.T.);
#265=ORIENTED_EDGE('',*,*,#416,.F.);
#266=ORIENTED_EDGE('',*,*,#417,.F.);
#267=ORIENTED_EDGE('',*,*,#303,.T.);
#268=ORIENTED_EDGE('',*,*,#331,.T.);
#269=ORIENTED_EDGE('',*,*,#418,.F.);
#270=ORIENTED_EDGE('',*,*,#419,.F.);
#271=ORIENTED_EDGE('',*,*,#416,.T.);
#272=ORIENTED_EDGE('',*,*,#330,.F.);
#273=ORIENTED_EDGE('',*,*,#297,.F.);
#274=ORIENTED_EDGE('',*,*,#420,.T.);
#275=ORIENTED_EDGE('',*,*,#418,.T.);
#276=ORIENTED_EDGE('',*,*,#296,.F.);
#277=ORIENTED_EDGE('',*,*,#417,.T.);
#278=ORIENTED_EDGE('',*,*,#419,.T.);
#279=ORIENTED_EDGE('',*,*,#420,.F.);
#280=ORIENTED_EDGE('',*,*,#315,.F.);
#281=ORIENTED_EDGE('',*,*,#305,.F.);
#282=ORIENTED_EDGE('',*,*,#421,.T.);
#283=ORIENTED_EDGE('',*,*,#422,.T.);
#284=ORIENTED_EDGE('',*,*,#317,.T.);
#285=ORIENTED_EDGE('',*,*,#423,.F.);
#286=ORIENTED_EDGE('',*,*,#424,.F.);
#287=ORIENTED_EDGE('',*,*,#311,.T.);
#288=ORIENTED_EDGE('',*,*,#316,.F.);
#289=ORIENTED_EDGE('',*,*,#422,.F.);
#290=ORIENTED_EDGE('',*,*,#425,.T.);
#291=ORIENTED_EDGE('',*,*,#423,.T.);
#292=ORIENTED_EDGE('',*,*,#421,.F.);
#293=ORIENTED_EDGE('',*,*,#304,.T.);
#294=ORIENTED_EDGE('',*,*,#424,.T.);
#295=ORIENTED_EDGE('',*,*,#425,.F.);
#296=EDGE_CURVE('',#426,#427,#514,.T.);
#297=EDGE_CURVE('',#427,#428,#515,.T.);
#298=EDGE_CURVE('',#428,#429,#516,.T.);
#299=EDGE_CURVE('',#429,#430,#517,.T.);
#300=EDGE_CURVE('',#431,#430,#518,.T.);
#301=EDGE_CURVE('',#432,#431,#519,.T.);
#302=EDGE_CURVE('',#432,#433,#520,.T.);
#303=EDGE_CURVE('',#426,#433,#521,.T.);
#304=EDGE_CURVE('',#434,#435,#522,.T.);
#305=EDGE_CURVE('',#434,#436,#523,.T.);
#306=EDGE_CURVE('',#436,#437,#524,.T.);
#307=EDGE_CURVE('',#437,#438,#525,.T.);
#308=EDGE_CURVE('',#439,#438,#526,.T.);
#309=EDGE_CURVE('',#440,#439,#527,.T.);
#310=EDGE_CURVE('',#440,#441,#528,.T.);
#311=EDGE_CURVE('',#435,#441,#529,.T.);
#312=EDGE_CURVE('',#433,#442,#530,.T.);
#313=EDGE_CURVE('',#443,#432,#20,.T.);
#314=EDGE_CURVE('',#437,#443,#531,.T.);
#315=EDGE_CURVE('',#436,#444,#532,.T.);
#316=EDGE_CURVE('',#444,#445,#533,.T.);
#317=EDGE_CURVE('',#441,#445,#534,.T.);
#318=EDGE_CURVE('',#446,#440,#21,.T.);
#319=EDGE_CURVE('',#447,#446,#535,.T.);
#320=EDGE_CURVE('',#448,#447,#536,.T.);
#321=EDGE_CURVE('',#449,#448,#537,.T.);
#322=EDGE_CURVE('',#450,#449,#538,.T.);
#323=EDGE_CURVE('',#450,#451,#539,.F.);
#324=EDGE_CURVE('',#452,#451,#540,.T.);
#325=EDGE_CURVE('',#452,#453,#541,.T.);
#326=EDGE_CURVE('',#453,#454,#542,.T.);
#327=EDGE_CURVE('',#454,#455,#543,.T.);
#328=EDGE_CURVE('',#456,#455,#544,.T.);
#329=EDGE_CURVE('',#429,#456,#22,.T.);
#330=EDGE_CURVE('',#428,#457,#545,.T.);
#331=EDGE_CURVE('',#442,#457,#546,.T.);
#332=EDGE_CURVE('',#458,#458,#23,.T.);
#333=EDGE_CURVE('',#459,#459,#24,.T.);
#334=EDGE_CURVE('',#460,#460,#25,.T.);
#335=EDGE_CURVE('',#461,#461,#26,.T.);
#336=EDGE_CURVE('',#462,#463,#547,.T.);
#337=EDGE_CURVE('',#463,#464,#548,.T.);
#338=EDGE_CURVE('',#465,#464,#549,.T.);
#339=EDGE_CURVE('',#462,#465,#550,.T.);
#340=EDGE_CURVE('',#466,#465,#551,.T.);
#341=EDGE_CURVE('',#467,#464,#552,.T.);
#342=EDGE_CURVE('',#466,#467,#553,.T.);
#343=EDGE_CURVE('',#468,#452,#554,.T.);
#344=EDGE_CURVE('',#468,#469,#555,.T.);
#345=EDGE_CURVE('',#453,#469,#556,.T.);
#346=EDGE_CURVE('',#451,#470,#557,.T.);
#347=EDGE_CURVE('',#470,#468,#558,.T.);
#348=EDGE_CURVE('',#471,#450,#559,.T.);
#349=EDGE_CURVE('',#471,#470,#560,.F.);
#350=EDGE_CURVE('',#448,#463,#561,.T.);
#351=EDGE_CURVE('',#449,#462,#562,.T.);
#352=EDGE_CURVE('',#472,#431,#27,.T.);
#353=EDGE_CURVE('',#443,#472,#563,.T.);
#354=EDGE_CURVE('',#438,#472,#564,.T.);
#355=EDGE_CURVE('',#473,#439,#28,.T.);
#356=EDGE_CURVE('',#446,#473,#565,.T.);
#357=EDGE_CURVE('',#474,#473,#566,.T.);
#358=EDGE_CURVE('',#447,#474,#567,.T.);
#359=EDGE_CURVE('',#475,#475,#29,.T.);
#360=EDGE_CURVE('',#476,#476,#30,.T.);
#361=EDGE_CURVE('',#477,#477,#31,.T.);
#362=EDGE_CURVE('',#478,#478,#32,.T.);
#363=EDGE_CURVE('',#479,#474,#568,.T.);
#364=EDGE_CURVE('',#480,#479,#569,.T.);
#365=EDGE_CURVE('',#480,#467,#570,.T.);
#366=EDGE_CURVE('',#430,#481,#33,.T.);
#367=EDGE_CURVE('',#456,#481,#571,.T.);
#368=EDGE_CURVE('',#482,#470,#572,.F.);
#369=EDGE_CURVE('',#483,#482,#573,.T.);
#370=EDGE_CURVE('',#468,#483,#574,.F.);
#371=EDGE_CURVE('',#484,#483,#575,.T.);
#372=EDGE_CURVE('',#469,#484,#576,.T.);
#373=EDGE_CURVE('',#485,#471,#577,.F.);
#374=EDGE_CURVE('',#482,#485,#578,.T.);
#375=EDGE_CURVE('',#486,#471,#579,.T.);
#376=EDGE_CURVE('',#486,#487,#580,.F.);
#377=EDGE_CURVE('',#485,#487,#581,.T.);
#378=EDGE_CURVE('',#488,#484,#582,.T.);
#379=EDGE_CURVE('',#488,#489,#583,.T.);
#380=EDGE_CURVE('',#469,#489,#584,.T.);
#381=EDGE_CURVE('',#490,#487,#585,.T.);
#382=EDGE_CURVE('',#491,#490,#586,.T.);
#383=EDGE_CURVE('',#492,#491,#587,.T.);
#384=EDGE_CURVE('',#493,#492,#588,.T.);
#385=EDGE_CURVE('',#494,#493,#589,.T.);
#386=EDGE_CURVE('',#495,#494,#590,.T.);
#387=EDGE_CURVE('',#496,#495,#591,.T.);
#388=EDGE_CURVE('',#497,#496,#592,.T.);
#389=EDGE_CURVE('',#488,#497,#593,.T.);
#390=EDGE_CURVE('',#455,#498,#594,.T.);
#391=EDGE_CURVE('',#481,#498,#595,.T.);
#392=EDGE_CURVE('',#499,#479,#34,.T.);
#393=EDGE_CURVE('',#499,#500,#596,.F.);
#394=EDGE_CURVE('',#500,#480,#35,.T.);
#395=EDGE_CURVE('',#501,#502,#597,.T.);
#396=EDGE_CURVE('',#502,#499,#598,.T.);
#397=EDGE_CURVE('',#498,#503,#599,.T.);
#398=EDGE_CURVE('',#503,#504,#600,.T.);
#399=EDGE_CURVE('',#504,#505,#601,.T.);
#400=EDGE_CURVE('',#505,#506,#602,.T.);
#401=EDGE_CURVE('',#506,#507,#603,.T.);
#402=EDGE_CURVE('',#507,#508,#604,.T.);
#403=EDGE_CURVE('',#508,#501,#605,.T.);
#404=EDGE_CURVE('',#500,#509,#606,.T.);
#405=EDGE_CURVE('',#466,#509,#607,.T.);
#406=EDGE_CURVE('',#454,#489,#608,.T.);
#407=EDGE_CURVE('',#509,#486,#609,.T.);
#408=EDGE_CURVE('',#501,#491,#610,.T.);
#409=EDGE_CURVE('',#502,#490,#611,.T.);
#410=EDGE_CURVE('',#508,#492,#612,.T.);
#411=EDGE_CURVE('',#507,#493,#613,.T.);
#412=EDGE_CURVE('',#506,#494,#614,.T.);
#413=EDGE_CURVE('',#505,#495,#615,.T.);
#414=EDGE_CURVE('',#504,#496,#616,.T.);
#415=EDGE_CURVE('',#503,#497,#617,.T.);
#416=EDGE_CURVE('',#510,#442,#618,.T.);
#417=EDGE_CURVE('',#426,#510,#619,.T.);
#418=EDGE_CURVE('',#511,#457,#620,.T.);
#419=EDGE_CURVE('',#510,#511,#621,.T.);
#420=EDGE_CURVE('',#427,#511,#622,.T.);
#421=EDGE_CURVE('',#434,#512,#623,.T.);
#422=EDGE_CURVE('',#512,#444,#624,.T.);
#423=EDGE_CURVE('',#513,#445,#625,.T.);
#424=EDGE_CURVE('',#435,#513,#626,.T.);
#425=EDGE_CURVE('',#512,#513,#627,.T.);
#426=VERTEX_POINT('',#1294);
#427=VERTEX_POINT('',#1295);
#428=VERTEX_POINT('',#1297);
#429=VERTEX_POINT('',#1299);
#430=VERTEX_POINT('',#1301);
#431=VERTEX_POINT('',#1303);
#432=VERTEX_POINT('',#1305);
#433=VERTEX_POINT('',#1307);
#434=VERTEX_POINT('',#1311);
#435=VERTEX_POINT('',#1312);
#436=VERTEX_POINT('',#1314);
#437=VERTEX_POINT('',#1316);
#438=VERTEX_POINT('',#1318);
#439=VERTEX_POINT('',#1320);
#440=VERTEX_POINT('',#1322);
#441=VERTEX_POINT('',#1324);
#442=VERTEX_POINT('',#1328);
#443=VERTEX_POINT('',#1330);
#444=VERTEX_POINT('',#1333);
#445=VERTEX_POINT('',#1335);
#446=VERTEX_POINT('',#1338);
#447=VERTEX_POINT('',#1340);
#448=VERTEX_POINT('',#1342);
#449=VERTEX_POINT('',#1344);
#450=VERTEX_POINT('',#1346);
#451=VERTEX_POINT('',#1348);
#452=VERTEX_POINT('',#1350);
#453=VERTEX_POINT('',#1352);
#454=VERTEX_POINT('',#1354);
#455=VERTEX_POINT('',#1356);
#456=VERTEX_POINT('',#1358);
#457=VERTEX_POINT('',#1361);
#458=VERTEX_POINT('',#1365);
#459=VERTEX_POINT('',#1368);
#460=VERTEX_POINT('',#1371);
#461=VERTEX_POINT('',#1374);
#462=VERTEX_POINT('',#1377);
#463=VERTEX_POINT('',#1378);
#464=VERTEX_POINT('',#1380);
#465=VERTEX_POINT('',#1382);
#466=VERTEX_POINT('',#1386);
#467=VERTEX_POINT('',#1388);
#468=VERTEX_POINT('',#1392);
#469=VERTEX_POINT('',#1394);
#470=VERTEX_POINT('',#1398);
#471=VERTEX_POINT('',#1402);
#472=VERTEX_POINT('',#1409);
#473=VERTEX_POINT('',#1415);
#474=VERTEX_POINT('',#1419);
#475=VERTEX_POINT('',#1423);
#476=VERTEX_POINT('',#1426);
#477=VERTEX_POINT('',#1429);
#478=VERTEX_POINT('',#1432);
#479=VERTEX_POINT('',#1435);
#480=VERTEX_POINT('',#1437);
#481=VERTEX_POINT('',#1441);
#482=VERTEX_POINT('',#1445);
#483=VERTEX_POINT('',#1447);
#484=VERTEX_POINT('',#1451);
#485=VERTEX_POINT('',#1455);
#486=VERTEX_POINT('',#1459);
#487=VERTEX_POINT('',#1461);
#488=VERTEX_POINT('',#1465);
#489=VERTEX_POINT('',#1467);
#490=VERTEX_POINT('',#1471);
#491=VERTEX_POINT('',#1473);
#492=VERTEX_POINT('',#1475);
#493=VERTEX_POINT('',#1477);
#494=VERTEX_POINT('',#1479);
#495=VERTEX_POINT('',#1481);
#496=VERTEX_POINT('',#1483);
#497=VERTEX_POINT('',#1485);
#498=VERTEX_POINT('',#1489);
#499=VERTEX_POINT('',#1493);
#500=VERTEX_POINT('',#1495);
#501=VERTEX_POINT('',#1499);
#502=VERTEX_POINT('',#1500);
#503=VERTEX_POINT('',#1503);
#504=VERTEX_POINT('',#1505);
#505=VERTEX_POINT('',#1507);
#506=VERTEX_POINT('',#1509);
#507=VERTEX_POINT('',#1511);
#508=VERTEX_POINT('',#1513);
#509=VERTEX_POINT('',#1517);
#510=VERTEX_POINT('',#1542);
#511=VERTEX_POINT('',#1546);
#512=VERTEX_POINT('',#1553);
#513=VERTEX_POINT('',#1557);
#514=LINE('',#1293,#628);
#515=LINE('',#1296,#629);
#516=LINE('',#1298,#630);
#517=LINE('',#1300,#631);
#518=LINE('',#1302,#632);
#519=LINE('',#1304,#633);
#520=LINE('',#1306,#634);
#521=LINE('',#1308,#635);
#522=LINE('',#1310,#636);
#523=LINE('',#1313,#637);
#524=LINE('',#1315,#638);
#525=LINE('',#1317,#639);
#526=LINE('',#1319,#640);
#527=LINE('',#1321,#641);
#528=LINE('',#1323,#642);
#529=LINE('',#1325,#643);
#530=LINE('',#1327,#644);
#531=LINE('',#1331,#645);
#532=LINE('',#1332,#646);
#533=LINE('',#1334,#647);
#534=LINE('',#1336,#648);
#535=LINE('',#1339,#649);
#536=LINE('',#1341,#650);
#537=LINE('',#1343,#651);
#538=LINE('',#1345,#652);
#539=LINE('',#1347,#653);
#540=LINE('',#1349,#654);
#541=LINE('',#1351,#655);
#542=LINE('',#1353,#656);
#543=LINE('',#1355,#657);
#544=LINE('',#1357,#658);
#545=LINE('',#1360,#659);
#546=LINE('',#1362,#660);
#547=LINE('',#1376,#661);
#548=LINE('',#1379,#662);
#549=LINE('',#1381,#663);
#550=LINE('',#1383,#664);
#551=LINE('',#1385,#665);
#552=LINE('',#1387,#666);
#553=LINE('',#1389,#667);
#554=LINE('',#1391,#668);
#555=LINE('',#1393,#669);
#556=LINE('',#1395,#670);
#557=LINE('',#1397,#671);
#558=LINE('',#1399,#672);
#559=LINE('',#1401,#673);
#560=LINE('',#1403,#674);
#561=LINE('',#1405,#675);
#562=LINE('',#1406,#676);
#563=LINE('',#1410,#677);
#564=LINE('',#1412,#678);
#565=LINE('',#1416,#679);
#566=LINE('',#1418,#680);
#567=LINE('',#1420,#681);
#568=LINE('',#1434,#682);
#569=LINE('',#1436,#683);
#570=LINE('',#1438,#684);
#571=LINE('',#1442,#685);
#572=LINE('',#1444,#686);
#573=LINE('',#1446,#687);
#574=LINE('',#1448,#688);
#575=LINE('',#1450,#689);
#576=LINE('',#1452,#690);
#577=LINE('',#1454,#691);
#578=LINE('',#1456,#692);
#579=LINE('',#1458,#693);
#580=LINE('',#1460,#694);
#581=LINE('',#1462,#695);
#582=LINE('',#1464,#696);
#583=LINE('',#1466,#697);
#584=LINE('',#1468,#698);
#585=LINE('',#1470,#699);
#586=LINE('',#1472,#700);
#587=LINE('',#1474,#701);
#588=LINE('',#1476,#702);
#589=LINE('',#1478,#703);
#590=LINE('',#1480,#704);
#591=LINE('',#1482,#705);
#592=LINE('',#1484,#706);
#593=LINE('',#1486,#707);
#594=LINE('',#1488,#708);
#595=LINE('',#1490,#709);
#596=LINE('',#1494,#710);
#597=LINE('',#1498,#711);
#598=LINE('',#1501,#712);
#599=LINE('',#1502,#713);
#600=LINE('',#1504,#714);
#601=LINE('',#1506,#715);
#602=LINE('',#1508,#716);
#603=LINE('',#1510,#717);
#604=LINE('',#1512,#718);
#605=LINE('',#1514,#719);
#606=LINE('',#1516,#720);
#607=LINE('',#1518,#721);
#608=LINE('',#1520,#722);
#609=LINE('',#1522,#723);
#610=LINE('',#1524,#724);
#611=LINE('',#1525,#725);
#612=LINE('',#1527,#726);
#613=LINE('',#1529,#727);
#614=LINE('',#1531,#728);
#615=LINE('',#1533,#729);
#616=LINE('',#1535,#730);
#617=LINE('',#1537,#731);
#618=LINE('',#1541,#732);
#619=LINE('',#1543,#733);
#620=LINE('',#1545,#734);
#621=LINE('',#1547,#735);
#622=LINE('',#1549,#736);
#623=LINE('',#1552,#737);
#624=LINE('',#1554,#738);
#625=LINE('',#1556,#739);
#626=LINE('',#1558,#740);
#627=LINE('',#1560,#741);
#628=VECTOR('',#1043,1.);
#629=VECTOR('',#1044,1.);
#630=VECTOR('',#1045,1.);
#631=VECTOR('',#1046,1.);
#632=VECTOR('',#1047,1.);
#633=VECTOR('',#1048,1.);
#634=VECTOR('',#1049,1.);
#635=VECTOR('',#1050,1.);
#636=VECTOR('',#1053,1.);
#637=VECTOR('',#1054,1.);
#638=VECTOR('',#1055,1.);
#639=VECTOR('',#1056,1.);
#640=VECTOR('',#1057,1.);
#641=VECTOR('',#1058,1.);
#642=VECTOR('',#1059,1.);
#643=VECTOR('',#1060,1.);
#644=VECTOR('',#1063,1.);
#645=VECTOR('',#1066,1.);
#646=VECTOR('',#1067,1.);
#647=VECTOR('',#1068,1.);
#648=VECTOR('',#1069,1.);
#649=VECTOR('',#1072,1.);
#650=VECTOR('',#1073,1.);
#651=VECTOR('',#1074,1.);
#652=VECTOR('',#1075,1.);
#653=VECTOR('',#1076,1.);
#654=VECTOR('',#1077,1.);
#655=VECTOR('',#1078,1.);
#656=VECTOR('',#1079,1.);
#657=VECTOR('',#1080,1.);
#658=VECTOR('',#1081,1.);
#659=VECTOR('',#1084,1.);
#660=VECTOR('',#1085,1.);
#661=VECTOR('',#1104,1.);
#662=VECTOR('',#1105,1.);
#663=VECTOR('',#1106,1.);
#664=VECTOR('',#1107,1.);
#665=VECTOR('',#1110,1.);
#666=VECTOR('',#1111,1.);
#667=VECTOR('',#1112,1.);
#668=VECTOR('',#1115,1.);
#669=VECTOR('',#1116,1.);
#670=VECTOR('',#1117,1.);
#671=VECTOR('',#1120,1.);
#672=VECTOR('',#1121,1.);
#673=VECTOR('',#1124,1.);
#674=VECTOR('',#1125,1.);
#675=VECTOR('',#1128,1.);
#676=VECTOR('',#1129,1.);
#677=VECTOR('',#1134,1.);
#678=VECTOR('',#1137,1.);
#679=VECTOR('',#1142,1.);
#680=VECTOR('',#1145,1.);
#681=VECTOR('',#1146,1.);
#682=VECTOR('',#1165,1.);
#683=VECTOR('',#1166,1.);
#684=VECTOR('',#1167,1.);
#685=VECTOR('',#1172,1.);
#686=VECTOR('',#1175,1.);
#687=VECTOR('',#1176,1.);
#688=VECTOR('',#1177,1.);
#689=VECTOR('',#1180,1.);
#690=VECTOR('',#1181,1.);
#691=VECTOR('',#1184,1.);
#692=VECTOR('',#1185,1.);
#693=VECTOR('',#1188,1.);
#694=VECTOR('',#1189,1.);
#695=VECTOR('',#1190,1.);
#696=VECTOR('',#1193,1.);
#697=VECTOR('',#1194,1.);
#698=VECTOR('',#1195,1.);
#699=VECTOR('',#1198,1.);
#700=VECTOR('',#1199,1.);
#701=VECTOR('',#1200,1.);
#702=VECTOR('',#1201,1.);
#703=VECTOR('',#1202,1.);
#704=VECTOR('',#1203,1.);
#705=VECTOR('',#1204,1.);
#706=VECTOR('',#1205,1.);
#707=VECTOR('',#1206,1.);
#708=VECTOR('',#1209,1.);
#709=VECTOR('',#1210,1.);
#710=VECTOR('',#1215,1.);
#711=VECTOR('',#1220,1.);
#712=VECTOR('',#1221,1.);
#713=VECTOR('',#1222,1.);
#714=VECTOR('',#1223,1.);
#715=VECTOR('',#1224,1.);
#716=VECTOR('',#1225,1.);
#717=VECTOR('',#1226,1.);
#718=VECTOR('',#1227,1.);
#719=VECTOR('',#1228,1.);
#720=VECTOR('',#1231,1.);
#721=VECTOR('',#1232,1.);
#722=VECTOR('',#1235,1.);
#723=VECTOR('',#1238,1.);
#724=VECTOR('',#1241,1.);
#725=VECTOR('',#1242,1.);
#726=VECTOR('',#1245,1.);
#727=VECTOR('',#1248,1.);
#728=VECTOR('',#1251,1.);
#729=VECTOR('',#1254,1.);
#730=VECTOR('',#1257,1.);
#731=VECTOR('',#1260,1.);
#732=VECTOR('',#1267,1.);
#733=VECTOR('',#1268,1.);
#734=VECTOR('',#1271,1.);
#735=VECTOR('',#1272,1.);
#736=VECTOR('',#1275,1.);
#737=VECTOR('',#1280,1.);
#738=VECTOR('',#1281,1.);
#739=VECTOR('',#1284,1.);
#740=VECTOR('',#1285,1.);
#741=VECTOR('',#1288,1.);
#742=EDGE_LOOP('',(#36,#37,#38,#39,#40,#41,#42,#43));
#743=EDGE_LOOP('',(#44,#45,#46,#47,#48,#49,#50,#51));
#744=EDGE_LOOP('',(#52,#53,#54,#55,#56,#57,#58,#59,#60,#61,#62,#63,#64,
#65,#66,#67,#68,#69,#70,#71,#72,#73,#74,#75));
#745=EDGE_LOOP('',(#76));
#746=EDGE_LOOP('',(#77));
#747=EDGE_LOOP('',(#78));
#748=EDGE_LOOP('',(#79));
#749=EDGE_LOOP('',(#80,#81,#82,#83));
#750=EDGE_LOOP('',(#84,#85,#86,#87));
#751=EDGE_LOOP('',(#88,#89,#90,#91));
#752=EDGE_LOOP('',(#92,#93,#94,#95));
#753=EDGE_LOOP('',(#96,#97,#98,#99));
#754=EDGE_LOOP('',(#100,#101,#102,#103));
#755=EDGE_LOOP('',(#104,#105,#106,#107));
#756=EDGE_LOOP('',(#108,#109,#110,#111));
#757=EDGE_LOOP('',(#112,#113,#114,#115));
#758=EDGE_LOOP('',(#116,#117,#118,#119));
#759=EDGE_LOOP('',(#120));
#760=EDGE_LOOP('',(#121));
#761=EDGE_LOOP('',(#122));
#762=EDGE_LOOP('',(#123));
#763=EDGE_LOOP('',(#124));
#764=EDGE_LOOP('',(#125));
#765=EDGE_LOOP('',(#126));
#766=EDGE_LOOP('',(#127));
#767=EDGE_LOOP('',(#128,#129,#130,#131,#132,#133,#134,#135));
#768=EDGE_LOOP('',(#136,#137,#138,#139));
#769=EDGE_LOOP('',(#140,#141,#142,#143));
#770=EDGE_LOOP('',(#144,#145,#146,#147));
#771=EDGE_LOOP('',(#148,#149,#150,#151));
#772=EDGE_LOOP('',(#152,#153,#154,#155));
#773=EDGE_LOOP('',(#156,#157,#158,#159));
#774=EDGE_LOOP('',(#160,#161,#162,#163,#164,#165,#166,#167,#168,#169,#170,
#171,#172,#173));
#775=EDGE_LOOP('',(#174,#175,#176,#177));
#776=EDGE_LOOP('',(#178,#179,#180,#181));
#777=EDGE_LOOP('',(#182));
#778=EDGE_LOOP('',(#183));
#779=EDGE_LOOP('',(#184));
#780=EDGE_LOOP('',(#185));
#781=EDGE_LOOP('',(#186,#187,#188,#189,#190,#191,#192,#193,#194,#195,#196,
#197,#198,#199,#200,#201,#202,#203,#204));
#782=EDGE_LOOP('',(#205,#206,#207,#208,#209));
#783=EDGE_LOOP('',(#210,#211,#212,#213));
#784=EDGE_LOOP('',(#214,#215,#216,#217,#218,#219,#220,#221));
#785=EDGE_LOOP('',(#222,#223,#224,#225));
#786=EDGE_LOOP('',(#226,#227,#228,#229));
#787=EDGE_LOOP('',(#230,#231,#232,#233));
#788=EDGE_LOOP('',(#234,#235,#236,#237));
#789=EDGE_LOOP('',(#238,#239,#240,#241));
#790=EDGE_LOOP('',(#242,#243,#244,#245));
#791=EDGE_LOOP('',(#246,#247,#248,#249));
#792=EDGE_LOOP('',(#250,#251,#252,#253,#254,#255,#256));
#793=EDGE_LOOP('',(#257,#258,#259,#260,#261,#262,#263));
#794=EDGE_LOOP('',(#264,#265,#266,#267));
#795=EDGE_LOOP('',(#268,#269,#270,#271));
#796=EDGE_LOOP('',(#272,#273,#274,#275));
#797=EDGE_LOOP('',(#276,#277,#278,#279));
#798=EDGE_LOOP('',(#280,#281,#282,#283));
#799=EDGE_LOOP('',(#284,#285,#286,#287));
#800=EDGE_LOOP('',(#288,#289,#290,#291));
#801=EDGE_LOOP('',(#292,#293,#294,#295));
#802=FACE_BOUND('',#742,.T.);
#803=FACE_BOUND('',#743,.T.);
#804=FACE_BOUND('',#744,.T.);
#805=FACE_BOUND('',#745,.T.);
#806=FACE_BOUND('',#746,.T.);
#807=FACE_BOUND('',#747,.T.);
#808=FACE_BOUND('',#748,.T.);
#809=FACE_BOUND('',#749,.T.);
#810=FACE_BOUND('',#750,.T.);
#811=FACE_BOUND('',#751,.T.);
#812=FACE_BOUND('',#752,.T.);
#813=FACE_BOUND('',#753,.T.);
#814=FACE_BOUND('',#754,.T.);
#815=FACE_BOUND('',#755,.T.);
#816=FACE_BOUND('',#756,.T.);
#817=FACE_BOUND('',#757,.T.);
#818=FACE_BOUND('',#758,.T.);
#819=FACE_BOUND('',#759,.T.);
#820=FACE_BOUND('',#760,.T.);
#821=FACE_BOUND('',#761,.T.);
#822=FACE_BOUND('',#762,.T.);
#823=FACE_BOUND('',#763,.T.);
#824=FACE_BOUND('',#764,.T.);
#825=FACE_BOUND('',#765,.T.);
#826=FACE_BOUND('',#766,.T.);
#827=FACE_BOUND('',#767,.T.);
#828=FACE_BOUND('',#768,.T.);
#829=FACE_BOUND('',#769,.T.);
#830=FACE_BOUND('',#770,.T.);
#831=FACE_BOUND('',#771,.T.);
#832=FACE_BOUND('',#772,.T.);
#833=FACE_BOUND('',#773,.T.);
#834=FACE_BOUND('',#774,.T.);
#835=FACE_BOUND('',#775,.T.);
#836=FACE_BOUND('',#776,.T.);
#837=FACE_BOUND('',#777,.T.);
#838=FACE_BOUND('',#778,.T.);
#839=FACE_BOUND('',#779,.T.);
#840=FACE_BOUND('',#780,.T.);
#841=FACE_BOUND('',#781,.T.);
#842=FACE_BOUND('',#782,.T.);
#843=FACE_BOUND('',#783,.T.);
#844=FACE_BOUND('',#784,.T.);
#845=FACE_BOUND('',#785,.T.);
#846=FACE_BOUND('',#786,.T.);
#847=FACE_BOUND('',#787,.T.);
#848=FACE_BOUND('',#788,.T.);
#849=FACE_BOUND('',#789,.T.);
#850=FACE_BOUND('',#790,.T.);
#851=FACE_BOUND('',#791,.T.);
#852=FACE_BOUND('',#792,.T.);
#853=FACE_BOUND('',#793,.T.);
#854=FACE_BOUND('',#794,.T.);
#855=FACE_BOUND('',#795,.T.);
#856=FACE_BOUND('',#796,.T.);
#857=FACE_BOUND('',#797,.T.);
#858=FACE_BOUND('',#798,.T.);
#859=FACE_BOUND('',#799,.T.);
#860=FACE_BOUND('',#800,.T.);
#861=FACE_BOUND('',#801,.T.);
#862=PLANE('',#971);
#863=PLANE('',#972);
#864=PLANE('',#973);
#865=PLANE('',#977);
#866=PLANE('',#979);
#867=PLANE('',#981);
#868=PLANE('',#983);
#869=PLANE('',#985);
#870=PLANE('',#986);
#871=PLANE('',#987);
#872=PLANE('',#988);
#873=PLANE('',#989);
#874=PLANE('',#990);
#875=PLANE('',#993);
#876=PLANE('',#996);
#877=PLANE('',#1005);
#878=PLANE('',#1008);
#879=PLANE('',#1009);
#880=PLANE('',#1010);
#881=PLANE('',#1011);
#882=PLANE('',#1012);
#883=PLANE('',#1013);
#884=PLANE('',#1014);
#885=PLANE('',#1018);
#886=PLANE('',#1019);
#887=PLANE('',#1020);
#888=PLANE('',#1021);
#889=PLANE('',#1022);
#890=PLANE('',#1023);
#891=PLANE('',#1024);
#892=PLANE('',#1025);
#893=PLANE('',#1026);
#894=PLANE('',#1027);
#895=PLANE('',#1028);
#896=PLANE('',#1029);
#897=PLANE('',#1030);
#898=PLANE('',#1031);
#899=PLANE('',#1032);
#900=PLANE('',#1033);
#901=PLANE('',#1034);
#902=PLANE('',#1035);
#903=PLANE('',#1036);
#904=PLANE('',#1037);
#905=PLANE('',#1038);
#906=ADVANCED_FACE('',(#802),#862,.T.);
#907=ADVANCED_FACE('',(#803),#863,.T.);
#908=ADVANCED_FACE('',(#804),#864,.T.);
#909=ADVANCED_FACE('',(#805),#865,.T.);
#910=ADVANCED_FACE('',(#806),#866,.T.);
#911=ADVANCED_FACE('',(#807),#867,.T.);
#912=ADVANCED_FACE('',(#808),#868,.T.);
#913=ADVANCED_FACE('',(#809),#869,.F.);
#914=ADVANCED_FACE('',(#810),#870,.T.);
#915=ADVANCED_FACE('',(#811),#871,.T.);
#916=ADVANCED_FACE('',(#812),#872,.F.);
#917=ADVANCED_FACE('',(#813),#873,.F.);
#918=ADVANCED_FACE('',(#814),#874,.F.);
#919=ADVANCED_FACE('',(#815),#12,.F.);
#920=ADVANCED_FACE('',(#816),#875,.T.);
#921=ADVANCED_FACE('',(#817),#13,.F.);
#922=ADVANCED_FACE('',(#818),#876,.T.);
#923=ADVANCED_FACE('',(#819,#820),#14,.F.);
#924=ADVANCED_FACE('',(#821,#822),#15,.F.);
#925=ADVANCED_FACE('',(#823,#824),#16,.F.);
#926=ADVANCED_FACE('',(#825,#826),#17,.F.);
#927=ADVANCED_FACE('',(#827),#877,.T.);
#928=ADVANCED_FACE('',(#828),#18,.F.);
#929=ADVANCED_FACE('',(#829),#878,.F.);
#930=ADVANCED_FACE('',(#830),#879,.T.);
#931=ADVANCED_FACE('',(#831),#880,.F.);
#932=ADVANCED_FACE('',(#832),#881,.F.);
#933=ADVANCED_FACE('',(#833),#882,.T.);
#934=ADVANCED_FACE('',(#834),#883,.F.);
#935=ADVANCED_FACE('',(#835),#884,.T.);
#936=ADVANCED_FACE('',(#836),#19,.F.);
#937=ADVANCED_FACE('',(#837,#838,#839,#840,#841),#885,.T.);
#938=ADVANCED_FACE('',(#842),#886,.T.);
#939=ADVANCED_FACE('',(#843),#887,.T.);
#940=ADVANCED_FACE('',(#844),#888,.F.);
#941=ADVANCED_FACE('',(#845),#889,.T.);
#942=ADVANCED_FACE('',(#846),#890,.T.);
#943=ADVANCED_FACE('',(#847),#891,.T.);
#944=ADVANCED_FACE('',(#848),#892,.T.);
#945=ADVANCED_FACE('',(#849),#893,.T.);
#946=ADVANCED_FACE('',(#850),#894,.T.);
#947=ADVANCED_FACE('',(#851),#895,.T.);
#948=ADVANCED_FACE('',(#852),#896,.T.);
#949=ADVANCED_FACE('',(#853),#897,.T.);
#950=ADVANCED_FACE('',(#854),#898,.F.);
#951=ADVANCED_FACE('',(#855),#899,.F.);
#952=ADVANCED_FACE('',(#856),#900,.T.);
#953=ADVANCED_FACE('',(#857),#901,.T.);
#954=ADVANCED_FACE('',(#858),#902,.T.);
#955=ADVANCED_FACE('',(#859),#903,.F.);
#956=ADVANCED_FACE('',(#860),#904,.T.);
#957=ADVANCED_FACE('',(#861),#905,.T.);
#958=CLOSED_SHELL('',(#906,#907,#908,#909,#910,#911,#912,#913,#914,#915,
#916,#917,#918,#919,#920,#921,#922,#923,#924,#925,#926,#927,#928,#929,#930,
#931,#932,#933,#934,#935,#936,#937,#938,#939,#940,#941,#942,#943,#944,#945,
#946,#947,#948,#949,#950,#951,#952,#953,#954,#955,#956,#957));
#959=STYLED_ITEM('',(#960),#967);
#960=PRESENTATION_STYLE_ASSIGNMENT((#961));
#961=SURFACE_STYLE_USAGE(.BOTH.,#962);
#962=SURFACE_SIDE_STYLE('',(#963));
#963=SURFACE_STYLE_FILL_AREA(#964);
#964=FILL_AREA_STYLE('',(#965));
#965=FILL_AREA_STYLE_COLOUR('',#966);
#966=COLOUR_RGB('',0.137254901960784,0.137254901960784,0.137254901960784);
#967=MANIFOLD_SOLID_BREP('Bottom2',#958);
#968=SHAPE_DEFINITION_REPRESENTATION(#1568,#969);
#969=SHAPE_REPRESENTATION('Bottom2',(#970),#1563);
#970=AXIS2_PLACEMENT_3D('',#1291,#1039,#1040);
#971=AXIS2_PLACEMENT_3D('',#1292,#1041,#1042);
#972=AXIS2_PLACEMENT_3D('',#1309,#1051,#1052);
#973=AXIS2_PLACEMENT_3D('',#1326,#1061,#1062);
#974=AXIS2_PLACEMENT_3D('',#1329,#1064,#1065);
#975=AXIS2_PLACEMENT_3D('',#1337,#1070,#1071);
#976=AXIS2_PLACEMENT_3D('',#1359,#1082,#1083);
#977=AXIS2_PLACEMENT_3D('',#1363,#1086,#1087);
#978=AXIS2_PLACEMENT_3D('',#1364,#1088,#1089);
#979=AXIS2_PLACEMENT_3D('',#1366,#1090,#1091);
#980=AXIS2_PLACEMENT_3D('',#1367,#1092,#1093);
#981=AXIS2_PLACEMENT_3D('',#1369,#1094,#1095);
#982=AXIS2_PLACEMENT_3D('',#1370,#1096,#1097);
#983=AXIS2_PLACEMENT_3D('',#1372,#1098,#1099);
#984=AXIS2_PLACEMENT_3D('',#1373,#1100,#1101);
#985=AXIS2_PLACEMENT_3D('',#1375,#1102,#1103);
#986=AXIS2_PLACEMENT_3D('',#1384,#1108,#1109);
#987=AXIS2_PLACEMENT_3D('',#1390,#1113,#1114);
#988=AXIS2_PLACEMENT_3D('',#1396,#1118,#1119);
#989=AXIS2_PLACEMENT_3D('',#1400,#1122,#1123);
#990=AXIS2_PLACEMENT_3D('',#1404,#1126,#1127);
#991=AXIS2_PLACEMENT_3D('',#1407,#1130,#1131);
#992=AXIS2_PLACEMENT_3D('',#1408,#1132,#1133);
#993=AXIS2_PLACEMENT_3D('',#1411,#1135,#1136);
#994=AXIS2_PLACEMENT_3D('',#1413,#1138,#1139);
#995=AXIS2_PLACEMENT_3D('',#1414,#1140,#1141);
#996=AXIS2_PLACEMENT_3D('',#1417,#1143,#1144);
#997=AXIS2_PLACEMENT_3D('',#1421,#1147,#1148);
#998=AXIS2_PLACEMENT_3D('',#1422,#1149,#1150);
#999=AXIS2_PLACEMENT_3D('',#1424,#1151,#1152);
#1000=AXIS2_PLACEMENT_3D('',#1425,#1153,#1154);
#1001=AXIS2_PLACEMENT_3D('',#1427,#1155,#1156);
#1002=AXIS2_PLACEMENT_3D('',#1428,#1157,#1158);
#1003=AXIS2_PLACEMENT_3D('',#1430,#1159,#1160);
#1004=AXIS2_PLACEMENT_3D('',#1431,#1161,#1162);
#1005=AXIS2_PLACEMENT_3D('',#1433,#1163,#1164);
#1006=AXIS2_PLACEMENT_3D('',#1439,#1168,#1169);
#1007=AXIS2_PLACEMENT_3D('',#1440,#1170,#1171);
#1008=AXIS2_PLACEMENT_3D('',#1443,#1173,#1174);
#1009=AXIS2_PLACEMENT_3D('',#1449,#1178,#1179);
#1010=AXIS2_PLACEMENT_3D('',#1453,#1182,#1183);
#1011=AXIS2_PLACEMENT_3D('',#1457,#1186,#1187);
#1012=AXIS2_PLACEMENT_3D('',#1463,#1191,#1192);
#1013=AXIS2_PLACEMENT_3D('',#1469,#1196,#1197);
#1014=AXIS2_PLACEMENT_3D('',#1487,#1207,#1208);
#1015=AXIS2_PLACEMENT_3D('',#1491,#1211,#1212);
#1016=AXIS2_PLACEMENT_3D('',#1492,#1213,#1214);
#1017=AXIS2_PLACEMENT_3D('',#1496,#1216,#1217);
#1018=AXIS2_PLACEMENT_3D('',#1497,#1218,#1219);
#1019=AXIS2_PLACEMENT_3D('',#1515,#1229,#1230);
#1020=AXIS2_PLACEMENT_3D('',#1519,#1233,#1234);
#1021=AXIS2_PLACEMENT_3D('',#1521,#1236,#1237);
#1022=AXIS2_PLACEMENT_3D('',#1523,#1239,#1240);
#1023=AXIS2_PLACEMENT_3D('',#1526,#1243,#1244);
#1024=AXIS2_PLACEMENT_3D('',#1528,#1246,#1247);
#1025=AXIS2_PLACEMENT_3D('',#1530,#1249,#1250);
#1026=AXIS2_PLACEMENT_3D('',#1532,#1252,#1253);
#1027=AXIS2_PLACEMENT_3D('',#1534,#1255,#1256);
#1028=AXIS2_PLACEMENT_3D('',#1536,#1258,#1259);
#1029=AXIS2_PLACEMENT_3D('',#1538,#1261,#1262);
#1030=AXIS2_PLACEMENT_3D('',#1539,#1263,#1264);
#1031=AXIS2_PLACEMENT_3D('',#1540,#1265,#1266);
#1032=AXIS2_PLACEMENT_3D('',#1544,#1269,#1270);
#1033=AXIS2_PLACEMENT_3D('',#1548,#1273,#1274);
#1034=AXIS2_PLACEMENT_3D('',#1550,#1276,#1277);
#1035=AXIS2_PLACEMENT_3D('',#1551,#1278,#1279);
#1036=AXIS2_PLACEMENT_3D('',#1555,#1282,#1283);
#1037=AXIS2_PLACEMENT_3D('',#1559,#1286,#1287);
#1038=AXIS2_PLACEMENT_3D('',#1561,#1289,#1290);
#1039=DIRECTION('',(0.,0.,1.));
#1040=DIRECTION('',(1.,0.,0.));
#1041=DIRECTION('',(0.,1.,0.));
#1042=DIRECTION('',(0.,0.,1.));
#1043=DIRECTION('',(1.,0.,0.));
#1044=DIRECTION('',(0.,0.,1.));
#1045=DIRECTION('',(1.,0.,0.));
#1046=DIRECTION('',(0.,0.,-1.));
#1047=DIRECTION('',(1.,0.,0.));
#1048=DIRECTION('',(0.,0.,-1.));
#1049=DIRECTION('',(1.,0.,0.));
#1050=DIRECTION('',(0.,0.,1.));
#1051=DIRECTION('',(1.,-7.6579138144245E-17,0.));
#1052=DIRECTION('',(7.6579138144245E-17,1.,0.));
#1053=DIRECTION('',(0.,1.,0.));
#1054=DIRECTION('',(0.,0.,1.));
#1055=DIRECTION('',(-7.6579138144245E-17,-1.,0.));
#1056=DIRECTION('',(0.,0.,-1.));
#1057=DIRECTION('',(-7.6579138144245E-17,-1.,0.));
#1058=DIRECTION('',(0.,0.,-1.));
#1059=DIRECTION('',(-7.6579138144245E-17,-1.,0.));
#1060=DIRECTION('',(0.,0.,1.));
#1061=DIRECTION('',(0.,0.,1.));
#1062=DIRECTION('',(1.,0.,0.));
#1063=DIRECTION('',(0.,-1.,0.));
#1064=DIRECTION('',(0.,0.,1.));
#1065=DIRECTION('',(1.,0.,0.));
#1066=DIRECTION('',(1.,0.,0.));
#1067=DIRECTION('',(-1.,0.,0.));
#1068=DIRECTION('',(0.,1.,0.));
#1069=DIRECTION('',(-1.,0.,0.));
#1070=DIRECTION('',(0.,0.,1.));
#1071=DIRECTION('',(1.,0.,0.));
#1072=DIRECTION('',(6.06423371145795E-17,-1.,0.));
#1073=DIRECTION('',(-1.,-9.33345734947979E-18,0.));
#1074=DIRECTION('',(9.33345734947979E-18,-1.,0.));
#1075=DIRECTION('',(1.,0.,0.));
#1076=DIRECTION('',(0.707106781186548,0.707106781186547,0.));
#1077=DIRECTION('',(-2.03067908843597E-16,1.,0.));
#1078=DIRECTION('',(0.707106781186548,-0.707106781186548,0.));
#1079=DIRECTION('',(1.,0.,0.));
#1080=DIRECTION('',(-1.22464679914735E-16,1.,0.));
#1081=DIRECTION('',(1.,0.,0.));
#1082=DIRECTION('',(0.,0.,1.));
#1083=DIRECTION('',(1.,0.,0.));
#1084=DIRECTION('',(0.,-1.,0.));
#1085=DIRECTION('',(1.,0.,0.));
#1086=DIRECTION('',(0.,0.,1.));
#1087=DIRECTION('',(1.,0.,0.));
#1088=DIRECTION('',(0.,0.,1.));
#1089=DIRECTION('',(1.,0.,0.));
#1090=DIRECTION('',(0.,0.,1.));
#1091=DIRECTION('',(1.,0.,0.));
#1092=DIRECTION('',(0.,0.,1.));
#1093=DIRECTION('',(1.,0.,0.));
#1094=DIRECTION('',(0.,0.,1.));
#1095=DIRECTION('',(1.,0.,0.));
#1096=DIRECTION('',(0.,0.,1.));
#1097=DIRECTION('',(1.,0.,0.));
#1098=DIRECTION('',(0.,0.,1.));
#1099=DIRECTION('',(1.,0.,0.));
#1100=DIRECTION('',(0.,0.,1.));
#1101=DIRECTION('',(1.,0.,0.));
#1102=DIRECTION('',(0.,0.,-1.));
#1103=DIRECTION('',(-1.,0.,0.));
#1104=DIRECTION('',(9.33345734947979E-18,-1.,0.));
#1105=DIRECTION('',(1.,9.33345734947979E-18,0.));
#1106=DIRECTION('',(9.33345734947979E-18,-1.,0.));
#1107=DIRECTION('',(1.,0.,0.));
#1108=DIRECTION('',(-1.,-9.33345734947979E-18,-1.15648231731787E-16));
#1109=DIRECTION('',(-1.15648231731787E-16,0.,1.));
#1110=DIRECTION('',(1.15648231731787E-16,0.,-1.));
#1111=DIRECTION('',(1.15648231731787E-16,1.07939783841139E-33,-1.));
#1112=DIRECTION('',(9.33345734947979E-18,-1.,0.));
#1113=DIRECTION('',(-0.707106781186548,-0.707106781186548,0.));
#1114=DIRECTION('',(0.,0.,-1.));
#1115=DIRECTION('',(0.,0.,1.));
#1116=DIRECTION('',(0.707106781186548,-0.707106781186548,0.));
#1117=DIRECTION('',(0.,0.,-1.));
#1118=DIRECTION('',(1.,2.03067908843597E-16,0.));
#1119=DIRECTION('',(-2.03067908843597E-16,1.,0.));
#1120=DIRECTION('',(0.,0.,-1.));
#1121=DIRECTION('',(2.03067908843597E-16,-1.,0.));
#1122=DIRECTION('',(0.707106781186547,-0.707106781186548,0.));
#1123=DIRECTION('',(0.,0.,1.));
#1124=DIRECTION('',(0.,0.,1.));
#1125=DIRECTION('',(0.707106781186548,0.707106781186547,0.));
#1126=DIRECTION('',(-1.,-9.33345734947979E-18,-1.15648231731787E-16));
#1127=DIRECTION('',(-1.15648231731787E-16,0.,1.));
#1128=DIRECTION('',(1.15648231731787E-16,1.07939783841139E-33,-1.));
#1129=DIRECTION('',(1.15648231731787E-16,0.,-1.));
#1130=DIRECTION('',(0.,0.,-1.));
#1131=DIRECTION('',(-1.,0.,0.));
#1132=DIRECTION('',(0.,0.,1.));
#1133=DIRECTION('',(1.,0.,0.));
#1134=DIRECTION('',(0.,0.,-1.));
#1135=DIRECTION('',(0.,1.,0.));
#1136=DIRECTION('',(0.,0.,1.));
#1137=DIRECTION('',(1.,0.,0.));
#1138=DIRECTION('',(0.,0.,-1.));
#1139=DIRECTION('',(-1.,0.,0.));
#1140=DIRECTION('',(0.,0.,1.));
#1141=DIRECTION('',(1.,0.,0.));
#1142=DIRECTION('',(0.,0.,-1.));
#1143=DIRECTION('',(1.,6.06423371145795E-17,0.));
#1144=DIRECTION('',(-6.06423371145795E-17,1.,0.));
#1145=DIRECTION('',(6.06423371145795E-17,-1.,0.));
#1146=DIRECTION('',(0.,0.,-1.));
#1147=DIRECTION('',(0.,0.,1.));
#1148=DIRECTION('',(1.,0.,0.));
#1149=DIRECTION('',(0.,0.,1.));
#1150=DIRECTION('',(1.,0.,0.));
#1151=DIRECTION('',(0.,0.,1.));
#1152=DIRECTION('',(1.,0.,0.));
#1153=DIRECTION('',(0.,0.,1.));
#1154=DIRECTION('',(1.,0.,0.));
#1155=DIRECTION('',(0.,0.,1.));
#1156=DIRECTION('',(1.,0.,0.));
#1157=DIRECTION('',(0.,0.,1.));
#1158=DIRECTION('',(1.,0.,0.));
#1159=DIRECTION('',(0.,0.,1.));
#1160=DIRECTION('',(1.,0.,0.));
#1161=DIRECTION('',(0.,0.,1.));
#1162=DIRECTION('',(1.,0.,0.));
#1163=DIRECTION('',(9.33345734947979E-18,-1.,0.));
#1164=DIRECTION('',(1.,9.33345734947979E-18,0.));
#1165=DIRECTION('',(-1.,-9.33345734947979E-18,0.));
#1166=DIRECTION('',(0.,0.,-1.));
#1167=DIRECTION('',(-1.,-9.33345734947979E-18,0.));
#1168=DIRECTION('',(0.,0.,-1.));
#1169=DIRECTION('',(-1.,0.,0.));
#1170=DIRECTION('',(0.,0.,1.));
#1171=DIRECTION('',(1.,0.,0.));
#1172=DIRECTION('',(0.,0.,-1.));
#1173=DIRECTION('',(0.707106781186548,1.43590695384679E-16,0.707106781186547));
#1174=DIRECTION('',(-2.03067908843597E-16,1.,0.));
#1175=DIRECTION('',(0.678598344545846,-0.281084637714824,-0.678598344545846));
#1176=DIRECTION('',(-2.03067908843597E-16,1.,0.));
#1177=DIRECTION('',(-0.678598344545845,-0.281084637714829,0.678598344545845));
#1178=DIRECTION('',(-0.5,-0.5,-0.707106781186551));
#1179=DIRECTION('',(0.707106781186548,-0.707106781186548,0.));
#1180=DIRECTION('',(-0.707106781186548,0.707106781186548,0.));
#1181=DIRECTION('',(0.281084637714829,0.678598344545846,-0.678598344545845));
#1182=DIRECTION('',(0.5,-0.5,0.707106781186549));
#1183=DIRECTION('',(0.707106781186548,0.707106781186547,0.));
#1184=DIRECTION('',(0.281084637714823,-0.678598344545846,-0.678598344545847));
#1185=DIRECTION('',(0.707106781186548,0.707106781186547,0.));
#1186=DIRECTION('',(0.,-0.707106781186548,0.707106781186547));
#1187=DIRECTION('',(1.,0.,0.));
#1188=DIRECTION('',(-1.,0.,0.));
#1189=DIRECTION('',(-8.65956056235493E-17,0.707106781186548,0.707106781186548));
#1190=DIRECTION('',(1.,0.,0.));
#1191=DIRECTION('',(0.,-0.707106781186547,-0.707106781186548));
#1192=DIRECTION('',(-1.,0.,0.));
#1193=DIRECTION('',(-1.,0.,0.));
#1194=DIRECTION('',(8.65956056235494E-17,-0.707106781186548,0.707106781186547));
#1195=DIRECTION('',(1.,0.,0.));
#1196=DIRECTION('',(0.,0.,1.));
#1197=DIRECTION('',(1.,0.,0.));
#1198=DIRECTION('',(-1.22464679914735E-16,1.,0.));
#1199=DIRECTION('',(-1.,0.,0.));
#1200=DIRECTION('',(-1.22464679914735E-16,1.,0.));
#1201=DIRECTION('',(-1.,0.,0.));
#1202=DIRECTION('',(-1.22464679914735E-16,1.,0.));
#1203=DIRECTION('',(-1.,0.,0.));
#1204=DIRECTION('',(-1.22464679914735E-16,1.,0.));
#1205=DIRECTION('',(-1.,0.,0.));
#1206=DIRECTION('',(-1.22464679914735E-16,1.,0.));
#1207=DIRECTION('',(0.,1.,0.));
#1208=DIRECTION('',(0.,0.,1.));
#1209=DIRECTION('',(0.,0.,-1.));
#1210=DIRECTION('',(1.,0.,0.));
#1211=DIRECTION('',(0.,0.,-1.));
#1212=DIRECTION('',(-1.,0.,0.));
#1213=DIRECTION('',(0.,0.,1.));
#1214=DIRECTION('',(1.,0.,0.));
#1215=DIRECTION('',(0.,0.,-1.));
#1216=DIRECTION('',(0.,0.,1.));
#1217=DIRECTION('',(1.,0.,0.));
#1218=DIRECTION('',(0.,0.,1.));
#1219=DIRECTION('',(1.,0.,0.));
#1220=DIRECTION('',(-1.,0.,0.));
#1221=DIRECTION('',(-1.22464679914735E-16,1.,0.));
#1222=DIRECTION('',(-1.22464679914735E-16,1.,0.));
#1223=DIRECTION('',(-1.,0.,0.));
#1224=DIRECTION('',(-1.22464679914735E-16,1.,0.));
#1225=DIRECTION('',(-1.,0.,0.));
#1226=DIRECTION('',(-1.22464679914735E-16,1.,0.));
#1227=DIRECTION('',(-1.,0.,0.));
#1228=DIRECTION('',(-1.22464679914735E-16,1.,0.));
#1229=DIRECTION('',(0.,0.,1.));
#1230=DIRECTION('',(1.,0.,0.));
#1231=DIRECTION('',(-1.22464679914735E-16,1.,0.));
#1232=DIRECTION('',(1.,0.,0.));
#1233=DIRECTION('',(0.,-1.,0.));
#1234=DIRECTION('',(0.,0.,-1.));
#1235=DIRECTION('',(0.,0.,-1.));
#1236=DIRECTION('',(0.,-1.,0.));
#1237=DIRECTION('',(0.,0.,-1.));
#1238=DIRECTION('',(0.,0.,-1.));
#1239=DIRECTION('',(0.,1.,0.));
#1240=DIRECTION('',(0.,0.,1.));
#1241=DIRECTION('',(0.,0.,-1.));
#1242=DIRECTION('',(0.,0.,-1.));
#1243=DIRECTION('',(1.,1.22464679914735E-16,0.));
#1244=DIRECTION('',(-1.22464679914735E-16,1.,0.));
#1245=DIRECTION('',(0.,0.,-1.));
#1246=DIRECTION('',(0.,1.,0.));
#1247=DIRECTION('',(0.,0.,1.));
#1248=DIRECTION('',(0.,0.,-1.));
#1249=DIRECTION('',(1.,1.22464679914735E-16,0.));
#1250=DIRECTION('',(-1.22464679914735E-16,1.,0.));
#1251=DIRECTION('',(0.,0.,-1.));
#1252=DIRECTION('',(0.,1.,0.));
#1253=DIRECTION('',(0.,0.,1.));
#1254=DIRECTION('',(0.,0.,-1.));
#1255=DIRECTION('',(1.,1.22464679914735E-16,0.));
#1256=DIRECTION('',(-1.22464679914735E-16,1.,0.));
#1257=DIRECTION('',(0.,0.,-1.));
#1258=DIRECTION('',(0.,1.,0.));
#1259=DIRECTION('',(0.,0.,1.));
#1260=DIRECTION('',(0.,0.,-1.));
#1261=DIRECTION('',(1.,1.22464679914735E-16,0.));
#1262=DIRECTION('',(-1.22464679914735E-16,1.,0.));
#1263=DIRECTION('',(1.,1.22464679914735E-16,0.));
#1264=DIRECTION('',(-1.22464679914735E-16,1.,0.));
#1265=DIRECTION('',(-1.,0.,0.));
#1266=DIRECTION('',(0.,0.,1.));
#1267=DIRECTION('',(0.,0.,1.));
#1268=DIRECTION('',(0.,-1.,0.));
#1269=DIRECTION('',(0.,-1.,0.));
#1270=DIRECTION('',(0.,0.,-1.));
#1271=DIRECTION('',(0.,0.,1.));
#1272=DIRECTION('',(1.,0.,0.));
#1273=DIRECTION('',(-1.,0.,0.));
#1274=DIRECTION('',(0.,0.,1.));
#1275=DIRECTION('',(0.,-1.,0.));
#1276=DIRECTION('',(0.,0.,1.));
#1277=DIRECTION('',(1.,0.,0.));
#1278=DIRECTION('',(0.,1.,0.));
#1279=DIRECTION('',(0.,0.,1.));
#1280=DIRECTION('',(-1.,0.,0.));
#1281=DIRECTION('',(0.,0.,1.));
#1282=DIRECTION('',(0.,1.,0.));
#1283=DIRECTION('',(0.,0.,1.));
#1284=DIRECTION('',(0.,0.,1.));
#1285=DIRECTION('',(-1.,0.,0.));
#1286=DIRECTION('',(1.,0.,0.));
#1287=DIRECTION('',(0.,0.,-1.));
#1288=DIRECTION('',(0.,1.,0.));
#1289=DIRECTION('',(0.,0.,1.));
#1290=DIRECTION('',(1.,0.,0.));
#1291=CARTESIAN_POINT('',(0.,0.,0.));
#1292=CARTESIAN_POINT('',(0.14430375,-0.1130775,0.0125));
#1293=CARTESIAN_POINT('',(0.14430375,-0.1130775,0.005));
#1294=CARTESIAN_POINT('',(0.0934733700227725,-0.1130775,0.005));
#1295=CARTESIAN_POINT('',(0.195134129977228,-0.1130775,0.005));
#1296=CARTESIAN_POINT('',(0.195134129977228,-0.1130775,0.005));
#1297=CARTESIAN_POINT('',(0.195134129977228,-0.1130775,0.0125));
#1298=CARTESIAN_POINT('',(0.14430375,-0.1130775,0.0125));
#1299=CARTESIAN_POINT('',(0.198134129977228,-0.1130775,0.0125));
#1300=CARTESIAN_POINT('',(0.198134129977228,-0.1130775,0.0125));
#1301=CARTESIAN_POINT('',(0.198134129977228,-0.1130775,0.));
#1302=CARTESIAN_POINT('',(0.14430375,-0.1130775,0.));
#1303=CARTESIAN_POINT('',(0.0904733700227725,-0.1130775,0.));
#1304=CARTESIAN_POINT('',(0.0904733700227725,-0.1130775,0.0125));
#1305=CARTESIAN_POINT('',(0.0904733700227725,-0.1130775,0.0125));
#1306=CARTESIAN_POINT('',(0.14430375,-0.1130775,0.0125));
#1307=CARTESIAN_POINT('',(0.0934733700227725,-0.1130775,0.0125));
#1308=CARTESIAN_POINT('',(0.0934733700227725,-0.1130775,0.005));
#1309=CARTESIAN_POINT('',(-0.01862125,-0.0904248100113862,0.0125));
#1310=CARTESIAN_POINT('',(-0.01862125,-0.0904248100113862,0.005));
#1311=CARTESIAN_POINT('',(-0.01862125,-0.1100775,0.005));
#1312=CARTESIAN_POINT('',(-0.01862125,-0.0707721200227725,0.005));
#1313=CARTESIAN_POINT('',(-0.01862125,-0.1100775,0.005));
#1314=CARTESIAN_POINT('',(-0.01862125,-0.1100775,0.0125));
#1315=CARTESIAN_POINT('',(-0.01862125,-0.0904248100113862,0.0125));
#1316=CARTESIAN_POINT('',(-0.01862125,-0.1130775,0.0125));
#1317=CARTESIAN_POINT('',(-0.01862125,-0.1130775,0.0125));
#1318=CARTESIAN_POINT('',(-0.01862125,-0.1130775,0.));
#1319=CARTESIAN_POINT('',(-0.01862125,-0.0904248100113862,0.));
#1320=CARTESIAN_POINT('',(-0.01862125,-0.0677721200227725,0.));
#1321=CARTESIAN_POINT('',(-0.01862125,-0.0677721200227725,0.0125));
#1322=CARTESIAN_POINT('',(-0.01862125,-0.0677721200227725,0.0125));
#1323=CARTESIAN_POINT('',(-0.01862125,-0.0904248100113862,0.0125));
#1324=CARTESIAN_POINT('',(-0.01862125,-0.0707721200227725,0.0125));
#1325=CARTESIAN_POINT('',(-0.01862125,-0.0707721200227725,0.005));
#1326=CARTESIAN_POINT('',(0.152638125,-0.053736875,0.0125));
#1327=CARTESIAN_POINT('',(0.0934733700227725,-0.1153275,0.0125));
#1328=CARTESIAN_POINT('',(0.0934733700227725,-0.1175775,0.0125));
#1329=CARTESIAN_POINT('',(0.08239125,-0.1120775,0.0125));
#1330=CARTESIAN_POINT('',(0.0743091299772275,-0.1130775,0.0125));
#1331=CARTESIAN_POINT('',(0.0278439399886137,-0.1130775,0.0125));
#1332=CARTESIAN_POINT('',(-0.02087125,-0.1100775,0.0125));
#1333=CARTESIAN_POINT('',(-0.02312125,-0.1100775,0.0125));
#1334=CARTESIAN_POINT('',(-0.02312125,-0.0904248100113862,0.0125));
#1335=CARTESIAN_POINT('',(-0.02312125,-0.0707721200227725,0.0125));
#1336=CARTESIAN_POINT('',(-0.02087125,-0.0707721200227725,0.0125));
#1337=CARTESIAN_POINT('',(-0.01762125,-0.05969,0.0125));
#1338=CARTESIAN_POINT('',(-0.01862125,-0.0516078799772275,0.0125));
#1339=CARTESIAN_POINT('',(-0.01862125,-0.0230020649886137,0.0125));
#1340=CARTESIAN_POINT('',(-0.01862125,0.00560375,0.0125));
#1341=CARTESIAN_POINT('',(0.0278439399886137,0.00560375,0.0125));
#1342=CARTESIAN_POINT('',(-0.00562125,0.00560375,0.0125));
#1343=CARTESIAN_POINT('',(-0.00562125,0.03060375,0.0125));
#1344=CARTESIAN_POINT('',(-0.00562125,0.01460375,0.0125));
#1345=CARTESIAN_POINT('',(0.152638125,0.01460375,0.0125));
#1346=CARTESIAN_POINT('',(-0.01762125,0.01460375,0.0125));
#1347=CARTESIAN_POINT('',(0.0333381250000002,0.0655631250000001,0.0125));
#1348=CARTESIAN_POINT('',(-0.02762125,0.00460375,0.0125));
#1349=CARTESIAN_POINT('',(-0.02762125,-0.053736875,0.0125));
#1350=CARTESIAN_POINT('',(-0.02762125,-0.1120775,0.0125));
#1351=CARTESIAN_POINT('',(0.033338125,-0.173036875,0.0125));
#1352=CARTESIAN_POINT('',(-0.01762125,-0.1220775,0.0125));
#1353=CARTESIAN_POINT('',(0.152638125,-0.1220775,0.0125));
#1354=CARTESIAN_POINT('',(0.227643430834994,-0.1220775,0.0125));
#1355=CARTESIAN_POINT('',(0.227643430834994,-0.053736875,0.0125));
#1356=CARTESIAN_POINT('',(0.227643430834994,-0.1130775,0.0125));
#1357=CARTESIAN_POINT('',(0.269097935011387,-0.1130775,0.0125));
#1358=CARTESIAN_POINT('',(0.214298370022772,-0.1130775,0.0125));
#1359=CARTESIAN_POINT('',(0.20621625,-0.1120775,0.0125));
#1360=CARTESIAN_POINT('',(0.195134129977228,-0.1153275,0.0125));
#1361=CARTESIAN_POINT('',(0.195134129977228,-0.1175775,0.0125));
#1362=CARTESIAN_POINT('',(0.14430375,-0.1175775,0.0125));
#1363=CARTESIAN_POINT('',(0.152638125,-0.053736875,-0.002));
#1364=CARTESIAN_POINT('',(0.08239125,0.00460375,-0.002));
#1365=CARTESIAN_POINT('',(0.08499125,0.00460375,-0.002));
#1366=CARTESIAN_POINT('',(0.152638125,-0.053736875,-0.002));
#1367=CARTESIAN_POINT('',(0.20621625,-0.1120775,-0.002));
#1368=CARTESIAN_POINT('',(0.20881625,-0.1120775,-0.002));
#1369=CARTESIAN_POINT('',(0.152638125,-0.053736875,-0.002));
#1370=CARTESIAN_POINT('',(0.08239125,-0.1120775,-0.002));
#1371=CARTESIAN_POINT('',(0.08499125,-0.1120775,-0.002));
#1372=CARTESIAN_POINT('',(0.152638125,-0.053736875,-0.002));
#1373=CARTESIAN_POINT('',(-0.01762125,-0.05969,-0.002));
#1374=CARTESIAN_POINT('',(-0.01502125,-0.05969,-0.002));
#1375=CARTESIAN_POINT('',(0.000378749999999995,0.03060375,0.005));
#1376=CARTESIAN_POINT('',(-0.00562125,0.03060375,0.005));
#1377=CARTESIAN_POINT('',(-0.00562125,0.01460375,0.005));
#1378=CARTESIAN_POINT('',(-0.00562125,0.00560375,0.005));
#1379=CARTESIAN_POINT('',(0.000378749999999995,0.00560375,0.005));
#1380=CARTESIAN_POINT('',(0.00637875,0.00560375,0.005));
#1381=CARTESIAN_POINT('',(0.00637875,0.03060375,0.005));
#1382=CARTESIAN_POINT('',(0.00637875,0.01460375,0.005));
#1383=CARTESIAN_POINT('',(0.152638125,0.01460375,0.005));
#1384=CARTESIAN_POINT('',(0.00637875,0.03060375,0.00875));
#1385=CARTESIAN_POINT('',(0.00637875,0.01460375,-0.003));
#1386=CARTESIAN_POINT('',(0.00637875,0.01460375,0.0125));
#1387=CARTESIAN_POINT('',(0.00637875,0.00560375,0.00875));
#1388=CARTESIAN_POINT('',(0.00637875,0.00560375,0.0125));
#1389=CARTESIAN_POINT('',(0.00637875,0.03060375,0.0125));
#1390=CARTESIAN_POINT('',(-0.02762125,-0.1120775,-0.003));
#1391=CARTESIAN_POINT('',(-0.02762125,-0.1120775,0.0125));
#1392=CARTESIAN_POINT('',(-0.02762125,-0.1120775,0.));
#1393=CARTESIAN_POINT('',(-0.01762125,-0.1220775,-8.36540987581045E-19));
#1394=CARTESIAN_POINT('',(-0.01762125,-0.1220775,0.));
#1395=CARTESIAN_POINT('',(-0.01762125,-0.1220775,-0.003));
#1396=CARTESIAN_POINT('',(-0.02762125,-0.053736875,-0.003));
#1397=CARTESIAN_POINT('',(-0.02762125,0.00460375,-0.003));
#1398=CARTESIAN_POINT('',(-0.02762125,0.00460375,0.));
#1399=CARTESIAN_POINT('',(-0.02762125,-0.053736875,0.));
#1400=CARTESIAN_POINT('',(-0.01762125,0.01460375,-0.003));
#1401=CARTESIAN_POINT('',(-0.01762125,0.01460375,-0.003));
#1402=CARTESIAN_POINT('',(-0.01762125,0.01460375,-5.63785129692462E-18));
#1403=CARTESIAN_POINT('',(-0.02762125,0.00460375,-5.65061766974583E-18));
#1404=CARTESIAN_POINT('',(-0.00562125,0.03060375,0.00875));
#1405=CARTESIAN_POINT('',(-0.00562125,0.00560375,0.00875));
#1406=CARTESIAN_POINT('',(-0.00562125,0.01460375,-0.003));
#1407=CARTESIAN_POINT('',(0.08239125,-0.1120775,0.0125));
#1408=CARTESIAN_POINT('',(0.08239125,-0.1120775,0.));
#1409=CARTESIAN_POINT('',(0.0743091299772275,-0.1130775,0.));
#1410=CARTESIAN_POINT('',(0.0743091299772275,-0.1130775,0.0125));
#1411=CARTESIAN_POINT('',(0.0278439399886137,-0.1130775,0.0125));
#1412=CARTESIAN_POINT('',(0.0278439399886137,-0.1130775,0.));
#1413=CARTESIAN_POINT('',(-0.01762125,-0.05969,0.0125));
#1414=CARTESIAN_POINT('',(-0.01762125,-0.05969,0.));
#1415=CARTESIAN_POINT('',(-0.01862125,-0.0516078799772275,0.));
#1416=CARTESIAN_POINT('',(-0.01862125,-0.0516078799772275,0.0125));
#1417=CARTESIAN_POINT('',(-0.01862125,-0.0230020649886137,0.0125));
#1418=CARTESIAN_POINT('',(-0.01862125,-0.0230020649886137,0.));
#1419=CARTESIAN_POINT('',(-0.01862125,0.00560375,0.));
#1420=CARTESIAN_POINT('',(-0.01862125,0.00560375,0.0125));
#1421=CARTESIAN_POINT('',(0.08239125,0.00460375,-0.002));
#1422=CARTESIAN_POINT('',(0.08239125,0.00460375,0.));
#1423=CARTESIAN_POINT('',(0.08499125,0.00460375,0.));
#1424=CARTESIAN_POINT('',(0.20621625,-0.1120775,-0.002));
#1425=CARTESIAN_POINT('',(0.20621625,-0.1120775,0.));
#1426=CARTESIAN_POINT('',(0.20881625,-0.1120775,0.));
#1427=CARTESIAN_POINT('',(0.08239125,-0.1120775,-0.002));
#1428=CARTESIAN_POINT('',(0.08239125,-0.1120775,0.));
#1429=CARTESIAN_POINT('',(0.08499125,-0.1120775,0.));
#1430=CARTESIAN_POINT('',(-0.01762125,-0.05969,-0.002));
#1431=CARTESIAN_POINT('',(-0.01762125,-0.05969,0.));
#1432=CARTESIAN_POINT('',(-0.01502125,-0.05969,0.));
#1433=CARTESIAN_POINT('',(0.0278439399886137,0.00560375,0.0125));
#1434=CARTESIAN_POINT('',(0.0278439399886137,0.00560375,0.));
#1435=CARTESIAN_POINT('',(0.0743091299772275,0.00560375,0.));
#1436=CARTESIAN_POINT('',(0.0743091299772275,0.00560375,0.0125));
#1437=CARTESIAN_POINT('',(0.0743091299772275,0.00560375,0.0125));
#1438=CARTESIAN_POINT('',(0.0278439399886137,0.00560375,0.0125));
#1439=CARTESIAN_POINT('',(0.20621625,-0.1120775,0.0125));
#1440=CARTESIAN_POINT('',(0.20621625,-0.1120775,0.));
#1441=CARTESIAN_POINT('',(0.214298370022772,-0.1130775,0.));
#1442=CARTESIAN_POINT('',(0.214298370022772,-0.1130775,0.0125));
#1443=CARTESIAN_POINT('',(-0.02462125,-0.053736875,-0.003));
#1444=CARTESIAN_POINT('',(-0.0137301766420325,-0.00115012098078977,-0.0138910733579675));
#1445=CARTESIAN_POINT('',(-0.02462125,0.00336110931288073,-0.003));
#1446=CARTESIAN_POINT('',(-0.02462125,-0.053736875,-0.003));
#1447=CARTESIAN_POINT('',(-0.02462125,-0.110834859312881,-0.003));
#1448=CARTESIAN_POINT('',(-0.00841435365472463,-0.104121743042692,-0.0192068963452754));
#1449=CARTESIAN_POINT('',(0.0354594453435597,-0.17091555465644,-0.003));
#1450=CARTESIAN_POINT('',(-0.0254999296564403,-0.10995617965644,-0.003));
#1451=CARTESIAN_POINT('',(-0.0163786093128807,-0.1190775,-0.003));
#1452=CARTESIAN_POINT('',(-0.00416929964615606,-0.0896016190153814,-0.0324758809846185));
#1453=CARTESIAN_POINT('',(0.0354594453435598,0.0634418046564404,-0.003));
#1454=CARTESIAN_POINT('',(-0.0221707341566282,0.0255871763527332,0.0109834263527332));
#1455=CARTESIAN_POINT('',(-0.0163786093128807,0.01160375,-0.003));
#1456=CARTESIAN_POINT('',(-0.0154999296564404,0.0124824296564404,-0.003));
#1457=CARTESIAN_POINT('',(0.152638125,0.01160375,-0.003));
#1458=CARTESIAN_POINT('',(0.152638125,0.01460375,-4.33680868994202E-19));
#1459=CARTESIAN_POINT('',(0.0895325019999999,0.01460375,2.81892564846231E-18));
#1460=CARTESIAN_POINT('',(0.0895325019999999,0.01160375,-0.003));
#1461=CARTESIAN_POINT('',(0.0895325019999999,0.01160375,-0.003));
#1462=CARTESIAN_POINT('',(0.152638125,0.01160375,-0.003));
#1463=CARTESIAN_POINT('',(0.152638125,-0.1220775,0.));
#1464=CARTESIAN_POINT('',(-0.01762125,-0.1190775,-0.003));
#1465=CARTESIAN_POINT('',(0.227643430834994,-0.1190775,-0.003));
#1466=CARTESIAN_POINT('',(0.227643430834994,-0.1220775,-4.59275038549471E-18));
#1467=CARTESIAN_POINT('',(0.227643430834994,-0.1220775,-1.14818759637368E-18));
#1468=CARTESIAN_POINT('',(0.3228975,-0.1220775,9.62964972193618E-35));
#1469=CARTESIAN_POINT('',(0.152638125,-0.053736875,-0.003));
#1470=CARTESIAN_POINT('',(0.0895325019999999,-0.053736875,-0.003));
#1471=CARTESIAN_POINT('',(0.0895325019999999,-0.0311166149941768,-0.003));
#1472=CARTESIAN_POINT('',(0.152638125,-0.0311166149941768,-0.003));
#1473=CARTESIAN_POINT('',(0.137156930834994,-0.0311166149941768,-0.003));
#1474=CARTESIAN_POINT('',(0.137156930834994,-0.053736875,-0.003));
#1475=CARTESIAN_POINT('',(0.137156930834994,-0.0501666149941769,-0.003));
#1476=CARTESIAN_POINT('',(0.152638125,-0.0501666149941769,-0.003));
#1477=CARTESIAN_POINT('',(0.180019430834994,-0.0501666149941769,-0.003));
#1478=CARTESIAN_POINT('',(0.180019430834994,-0.053736875,-0.003));
#1479=CARTESIAN_POINT('',(0.180019430834994,-0.0692166649941769,-0.003));
#1480=CARTESIAN_POINT('',(0.152638125,-0.0692166649941769,-0.003));
#1481=CARTESIAN_POINT('',(0.208594430834995,-0.0692166649941769,-0.003));
#1482=CARTESIAN_POINT('',(0.208594430834995,-0.053736875,-0.003));
#1483=CARTESIAN_POINT('',(0.208594430834995,-0.0882667149941769,-0.003));
#1484=CARTESIAN_POINT('',(0.152638125,-0.0882667149941769,-0.003));
#1485=CARTESIAN_POINT('',(0.227643430834994,-0.0882667149941769,-0.003));
#1486=CARTESIAN_POINT('',(0.227643430834994,-0.053736875,-0.003));
#1487=CARTESIAN_POINT('',(0.269097935011387,-0.1130775,0.0125));
#1488=CARTESIAN_POINT('',(0.227643430834994,-0.1130775,0.0125));
#1489=CARTESIAN_POINT('',(0.227643430834994,-0.1130775,0.));
#1490=CARTESIAN_POINT('',(0.269097935011387,-0.1130775,0.));
#1491=CARTESIAN_POINT('',(0.08239125,0.00460375,0.0125));
#1492=CARTESIAN_POINT('',(0.08239125,0.00460375,0.));
#1493=CARTESIAN_POINT('',(0.0895325019999999,0.00851823386572198,0.));
#1494=CARTESIAN_POINT('',(0.0895325019999999,0.00851823386572198,0.0125));
#1495=CARTESIAN_POINT('',(0.0895325019999999,0.00851823386572198,0.0125));
#1496=CARTESIAN_POINT('',(0.08239125,0.00460375,0.0125));
#1497=CARTESIAN_POINT('',(0.152638125,-0.053736875,0.));
#1498=CARTESIAN_POINT('',(0.152638125,-0.0311166149941768,0.));
#1499=CARTESIAN_POINT('',(0.137156930834994,-0.0311166149941768,0.));
#1500=CARTESIAN_POINT('',(0.0895325019999999,-0.0311166149941768,0.));
#1501=CARTESIAN_POINT('',(0.0895325019999999,-0.053736875,0.));
#1502=CARTESIAN_POINT('',(0.227643430834994,-0.053736875,0.));
#1503=CARTESIAN_POINT('',(0.227643430834994,-0.0882667149941769,0.));
#1504=CARTESIAN_POINT('',(0.152638125,-0.0882667149941769,0.));
#1505=CARTESIAN_POINT('',(0.208594430834995,-0.0882667149941769,0.));
#1506=CARTESIAN_POINT('',(0.208594430834995,-0.053736875,0.));
#1507=CARTESIAN_POINT('',(0.208594430834995,-0.0692166649941769,0.));
#1508=CARTESIAN_POINT('',(0.152638125,-0.0692166649941769,0.));
#1509=CARTESIAN_POINT('',(0.180019430834994,-0.0692166649941769,0.));
#1510=CARTESIAN_POINT('',(0.180019430834994,-0.053736875,0.));
#1511=CARTESIAN_POINT('',(0.180019430834994,-0.0501666149941769,0.));
#1512=CARTESIAN_POINT('',(0.152638125,-0.0501666149941769,0.));
#1513=CARTESIAN_POINT('',(0.137156930834994,-0.0501666149941769,0.));
#1514=CARTESIAN_POINT('',(0.137156930834994,-0.053736875,0.));
#1515=CARTESIAN_POINT('',(0.152638125,-0.053736875,0.0125));
#1516=CARTESIAN_POINT('',(0.0895325019999999,-0.053736875,0.0125));
#1517=CARTESIAN_POINT('',(0.0895325019999999,0.01460375,0.0125));
#1518=CARTESIAN_POINT('',(0.152638125,0.01460375,0.0125));
#1519=CARTESIAN_POINT('',(0.152638125,-0.1220775,-0.003));
#1520=CARTESIAN_POINT('',(0.227643430834994,-0.1220775,0.0155));
#1521=CARTESIAN_POINT('',(0.152638125,0.01460375,-0.003));
#1522=CARTESIAN_POINT('',(0.0895325019999999,0.01460375,0.0155));
#1523=CARTESIAN_POINT('',(0.113301679496433,-0.0311166149941768,0.0155));
#1524=CARTESIAN_POINT('',(0.137156930834994,-0.0311166149941768,0.0155));
#1525=CARTESIAN_POINT('',(0.0895325019999999,-0.0311166149941768,0.0155));
#1526=CARTESIAN_POINT('',(0.137156930834994,-0.0413686733271055,0.0155));
#1527=CARTESIAN_POINT('',(0.137156930834994,-0.0501666149941769,0.0155));
#1528=CARTESIAN_POINT('',(0.158168886871085,-0.0501666149941769,0.0155));
#1529=CARTESIAN_POINT('',(0.180019430834994,-0.0501666149941769,0.0155));
#1530=CARTESIAN_POINT('',(0.180019430834994,-0.0596139171366062,0.0155));
#1531=CARTESIAN_POINT('',(0.180019430834994,-0.0692166649941769,0.0155));
#1532=CARTESIAN_POINT('',(0.193897447552176,-0.0692166649941769,0.0155));
#1533=CARTESIAN_POINT('',(0.208594430834995,-0.0692166649941769,0.0155));
#1534=CARTESIAN_POINT('',(0.208594430834995,-0.0787590439956036,0.0155));
#1535=CARTESIAN_POINT('',(0.208594430834995,-0.0882667149941769,0.0155));
#1536=CARTESIAN_POINT('',(0.217977103424073,-0.0882667149941769,0.0155));
#1537=CARTESIAN_POINT('',(0.227643430834994,-0.0882667149941769,0.0155));
#1538=CARTESIAN_POINT('',(0.227643430834994,-0.103686237729788,0.0155));
#1539=CARTESIAN_POINT('',(0.0895325019999999,-0.00925213671743869,0.0155));
#1540=CARTESIAN_POINT('',(0.0934733700227725,-0.1153275,0.005));
#1541=CARTESIAN_POINT('',(0.0934733700227725,-0.1175775,0.005));
#1542=CARTESIAN_POINT('',(0.0934733700227725,-0.1175775,0.005));
#1543=CARTESIAN_POINT('',(0.0934733700227725,-0.1153275,0.005));
#1544=CARTESIAN_POINT('',(0.14430375,-0.1175775,0.005));
#1545=CARTESIAN_POINT('',(0.195134129977228,-0.1175775,0.005));
#1546=CARTESIAN_POINT('',(0.195134129977228,-0.1175775,0.005));
#1547=CARTESIAN_POINT('',(0.14430375,-0.1175775,0.005));
#1548=CARTESIAN_POINT('',(0.195134129977228,-0.1153275,0.005));
#1549=CARTESIAN_POINT('',(0.195134129977228,-0.1153275,0.005));
#1550=CARTESIAN_POINT('',(0.152638125,-0.053736875,0.005));
#1551=CARTESIAN_POINT('',(-0.02087125,-0.1100775,0.005));
#1552=CARTESIAN_POINT('',(-0.02087125,-0.1100775,0.005));
#1553=CARTESIAN_POINT('',(-0.02312125,-0.1100775,0.005));
#1554=CARTESIAN_POINT('',(-0.02312125,-0.1100775,0.005));
#1555=CARTESIAN_POINT('',(-0.02087125,-0.0707721200227725,0.005));
#1556=CARTESIAN_POINT('',(-0.02312125,-0.0707721200227725,0.005));
#1557=CARTESIAN_POINT('',(-0.02312125,-0.0707721200227725,0.005));
#1558=CARTESIAN_POINT('',(-0.02087125,-0.0707721200227725,0.005));
#1559=CARTESIAN_POINT('',(-0.02312125,-0.0904248100113862,0.005));
#1560=CARTESIAN_POINT('',(-0.02312125,-0.0904248100113862,0.005));
#1561=CARTESIAN_POINT('',(0.152638125,-0.053736875,0.005));
#1562=MECHANICAL_DESIGN_GEOMETRIC_PRESENTATION_REPRESENTATION('',(#959),
#1563);
#1563=(
GEOMETRIC_REPRESENTATION_CONTEXT(3)
GLOBAL_UNCERTAINTY_ASSIGNED_CONTEXT((#1564))
GLOBAL_UNIT_ASSIGNED_CONTEXT((#1567,#1566,#1565))
REPRESENTATION_CONTEXT('Bottom2','TOP_LEVEL_ASSEMBLY_PART')
);
#1564=UNCERTAINTY_MEASURE_WITH_UNIT(LENGTH_MEASURE(1.E-8),#1567,
'DISTANCE_ACCURACY_VALUE','Maximum Tolerance applied to model');
#1565=(
NAMED_UNIT(*)
SI_UNIT($,.STERADIAN.)
SOLID_ANGLE_UNIT()
);
#1566=(
NAMED_UNIT(*)
PLANE_ANGLE_UNIT()
SI_UNIT($,.RADIAN.)
);
#1567=(
LENGTH_UNIT()
NAMED_UNIT(*)
SI_UNIT($,.METRE.)
);
#1568=PRODUCT_DEFINITION_SHAPE('','',#1569);
#1569=PRODUCT_DEFINITION('','',#1571,#1570);
#1570=PRODUCT_DEFINITION_CONTEXT('',#1577,'design');
#1571=PRODUCT_DEFINITION_FORMATION_WITH_SPECIFIED_SOURCE('','',#1573,
 .NOT_KNOWN.);
#1572=PRODUCT_RELATED_PRODUCT_CATEGORY('','',(#1573));
#1573=PRODUCT('Bottom2','Bottom2','Bottom2',(#1575));
#1574=PRODUCT_CATEGORY('','');
#1575=PRODUCT_CONTEXT('',#1577,'mechanical');
#1576=APPLICATION_PROTOCOL_DEFINITION('international standard',
'ap242_managed_model_based_3d_engineering',2020,#1577);
#1577=APPLICATION_CONTEXT('managed model based 3d engineering');
ENDSEC;
END-ISO-10303-21;
