ISO-10303-21;
HEADER;
/* Generated by software containing ST-Developer
 * from STEP Tools, Inc. (www.steptools.com) 
 */
/* OPTION: using custom renumber hook */

FILE_DESCRIPTION(
/* description */ ('STEP AP242 Edition 2',
'CAx-IF Rec.Pracs.---Representation and Presentation of Product Manufa
cturing Information (PMI)---4.0---2014-10-13',
'CAx-IF Rec.Pracs.---3D Tessellated Geometry---0.4---2014-09-14','2;1',
'CAx-IF Rec.Pracs.---User Defined Attributes---1.5---2016-08-15'),
/* implementation_level */ '2;1');

FILE_NAME(
/* name */ 'Magno65 parts - Bottom1',
/* time_stamp */ '2026-07-13T17:40:52Z',
/* author */ (''),
/* organization */ (''),
/* preprocessor_version */ 'ST-DEVELOPER v20',
/* originating_system */ 'ONSHAPE BY PTC INC, 1.217',
/* authorisation */ '  ');

FILE_SCHEMA (('AP242_MANAGED_MODEL_BASED_3D_ENGINEERING_MIM_LF { 1 0 10303 442 3 1 4 }'));
ENDSEC;

DATA;
#10=SHAPE_REPRESENTATION_RELATIONSHIP('','',#801,#11);
#11=ADVANCED_BREP_SHAPE_REPRESENTATION('',(#799),#1283);
#12=CYLINDRICAL_SURFACE('',#817,0.0026);
#13=CYLINDRICAL_SURFACE('',#820,0.0026);
#14=CYLINDRICAL_SURFACE('',#823,0.00814375);
#15=CYLINDRICAL_SURFACE('',#824,0.00814375);
#16=CYLINDRICAL_SURFACE('',#826,0.00814375);
#17=CIRCLE('',#804,0.00814375);
#18=CIRCLE('',#805,0.00814375);
#19=CIRCLE('',#806,0.00814375);
#20=CIRCLE('',#812,0.00814375);
#21=CIRCLE('',#813,0.00814375);
#22=CIRCLE('',#814,0.00814375);
#23=CIRCLE('',#815,0.0026);
#24=CIRCLE('',#816,0.0026);
#25=CIRCLE('',#818,0.0026);
#26=CIRCLE('',#821,0.0026);
#27=ORIENTED_EDGE('',*,*,#243,.F.);
#28=ORIENTED_EDGE('',*,*,#244,.T.);
#29=ORIENTED_EDGE('',*,*,#245,.F.);
#30=ORIENTED_EDGE('',*,*,#246,.F.);
#31=ORIENTED_EDGE('',*,*,#247,.F.);
#32=ORIENTED_EDGE('',*,*,#248,.F.);
#33=ORIENTED_EDGE('',*,*,#249,.F.);
#34=ORIENTED_EDGE('',*,*,#250,.F.);
#35=ORIENTED_EDGE('',*,*,#251,.F.);
#36=ORIENTED_EDGE('',*,*,#252,.T.);
#37=ORIENTED_EDGE('',*,*,#253,.T.);
#38=ORIENTED_EDGE('',*,*,#254,.T.);
#39=ORIENTED_EDGE('',*,*,#255,.T.);
#40=ORIENTED_EDGE('',*,*,#256,.F.);
#41=ORIENTED_EDGE('',*,*,#257,.F.);
#42=ORIENTED_EDGE('',*,*,#258,.F.);
#43=ORIENTED_EDGE('',*,*,#259,.F.);
#44=ORIENTED_EDGE('',*,*,#260,.T.);
#45=ORIENTED_EDGE('',*,*,#261,.T.);
#46=ORIENTED_EDGE('',*,*,#262,.F.);
#47=ORIENTED_EDGE('',*,*,#263,.F.);
#48=ORIENTED_EDGE('',*,*,#264,.F.);
#49=ORIENTED_EDGE('',*,*,#265,.F.);
#50=ORIENTED_EDGE('',*,*,#266,.T.);
#51=ORIENTED_EDGE('',*,*,#267,.T.);
#52=ORIENTED_EDGE('',*,*,#259,.T.);
#53=ORIENTED_EDGE('',*,*,#268,.T.);
#54=ORIENTED_EDGE('',*,*,#269,.F.);
#55=ORIENTED_EDGE('',*,*,#270,.F.);
#56=ORIENTED_EDGE('',*,*,#263,.T.);
#57=ORIENTED_EDGE('',*,*,#271,.F.);
#58=ORIENTED_EDGE('',*,*,#272,.T.);
#59=ORIENTED_EDGE('',*,*,#273,.T.);
#60=ORIENTED_EDGE('',*,*,#243,.T.);
#61=ORIENTED_EDGE('',*,*,#274,.T.);
#62=ORIENTED_EDGE('',*,*,#275,.F.);
#63=ORIENTED_EDGE('',*,*,#276,.F.);
#64=ORIENTED_EDGE('',*,*,#247,.T.);
#65=ORIENTED_EDGE('',*,*,#277,.F.);
#66=ORIENTED_EDGE('',*,*,#278,.F.);
#67=ORIENTED_EDGE('',*,*,#256,.T.);
#68=ORIENTED_EDGE('',*,*,#279,.T.);
#69=ORIENTED_EDGE('',*,*,#280,.T.);
#70=ORIENTED_EDGE('',*,*,#252,.F.);
#71=ORIENTED_EDGE('',*,*,#281,.T.);
#72=ORIENTED_EDGE('',*,*,#282,.T.);
#73=ORIENTED_EDGE('',*,*,#283,.T.);
#74=ORIENTED_EDGE('',*,*,#284,.F.);
#75=ORIENTED_EDGE('',*,*,#285,.F.);
#76=ORIENTED_EDGE('',*,*,#286,.F.);
#77=ORIENTED_EDGE('',*,*,#287,.F.);
#78=ORIENTED_EDGE('',*,*,#288,.F.);
#79=ORIENTED_EDGE('',*,*,#289,.F.);
#80=ORIENTED_EDGE('',*,*,#290,.F.);
#81=ORIENTED_EDGE('',*,*,#291,.F.);
#82=ORIENTED_EDGE('',*,*,#292,.F.);
#83=ORIENTED_EDGE('',*,*,#293,.T.);
#84=ORIENTED_EDGE('',*,*,#294,.T.);
#85=ORIENTED_EDGE('',*,*,#295,.T.);
#86=ORIENTED_EDGE('',*,*,#275,.T.);
#87=ORIENTED_EDGE('',*,*,#296,.T.);
#88=ORIENTED_EDGE('',*,*,#297,.T.);
#89=ORIENTED_EDGE('',*,*,#269,.T.);
#90=ORIENTED_EDGE('',*,*,#298,.T.);
#91=ORIENTED_EDGE('',*,*,#299,.F.);
#92=ORIENTED_EDGE('',*,*,#300,.F.);
#93=ORIENTED_EDGE('',*,*,#301,.F.);
#94=ORIENTED_EDGE('',*,*,#299,.T.);
#95=ORIENTED_EDGE('',*,*,#301,.T.);
#96=ORIENTED_EDGE('',*,*,#302,.F.);
#97=ORIENTED_EDGE('',*,*,#300,.T.);
#98=ORIENTED_EDGE('',*,*,#302,.T.);
#99=ORIENTED_EDGE('',*,*,#303,.F.);
#100=ORIENTED_EDGE('',*,*,#298,.F.);
#101=ORIENTED_EDGE('',*,*,#268,.F.);
#102=ORIENTED_EDGE('',*,*,#258,.T.);
#103=ORIENTED_EDGE('',*,*,#297,.F.);
#104=ORIENTED_EDGE('',*,*,#304,.F.);
#105=ORIENTED_EDGE('',*,*,#264,.T.);
#106=ORIENTED_EDGE('',*,*,#270,.T.);
#107=ORIENTED_EDGE('',*,*,#296,.F.);
#108=ORIENTED_EDGE('',*,*,#274,.F.);
#109=ORIENTED_EDGE('',*,*,#265,.T.);
#110=ORIENTED_EDGE('',*,*,#304,.T.);
#111=ORIENTED_EDGE('',*,*,#295,.F.);
#112=ORIENTED_EDGE('',*,*,#305,.F.);
#113=ORIENTED_EDGE('',*,*,#248,.T.);
#114=ORIENTED_EDGE('',*,*,#276,.T.);
#115=ORIENTED_EDGE('',*,*,#294,.F.);
#116=ORIENTED_EDGE('',*,*,#306,.F.);
#117=ORIENTED_EDGE('',*,*,#249,.T.);
#118=ORIENTED_EDGE('',*,*,#305,.T.);
#119=ORIENTED_EDGE('',*,*,#307,.F.);
#120=ORIENTED_EDGE('',*,*,#250,.T.);
#121=ORIENTED_EDGE('',*,*,#306,.T.);
#122=ORIENTED_EDGE('',*,*,#293,.F.);
#123=ORIENTED_EDGE('',*,*,#308,.T.);
#124=ORIENTED_EDGE('',*,*,#309,.T.);
#125=ORIENTED_EDGE('',*,*,#310,.T.);
#126=ORIENTED_EDGE('',*,*,#311,.T.);
#127=ORIENTED_EDGE('',*,*,#312,.T.);
#128=ORIENTED_EDGE('',*,*,#313,.T.);
#129=ORIENTED_EDGE('',*,*,#314,.T.);
#130=ORIENTED_EDGE('',*,*,#315,.T.);
#131=ORIENTED_EDGE('',*,*,#316,.T.);
#132=ORIENTED_EDGE('',*,*,#317,.T.);
#133=ORIENTED_EDGE('',*,*,#318,.T.);
#134=ORIENTED_EDGE('',*,*,#319,.T.);
#135=ORIENTED_EDGE('',*,*,#320,.T.);
#136=ORIENTED_EDGE('',*,*,#321,.T.);
#137=ORIENTED_EDGE('',*,*,#322,.T.);
#138=ORIENTED_EDGE('',*,*,#323,.T.);
#139=ORIENTED_EDGE('',*,*,#324,.T.);
#140=ORIENTED_EDGE('',*,*,#254,.F.);
#141=ORIENTED_EDGE('',*,*,#324,.F.);
#142=ORIENTED_EDGE('',*,*,#325,.T.);
#143=ORIENTED_EDGE('',*,*,#279,.F.);
#144=ORIENTED_EDGE('',*,*,#255,.F.);
#145=ORIENTED_EDGE('',*,*,#283,.F.);
#146=ORIENTED_EDGE('',*,*,#326,.T.);
#147=ORIENTED_EDGE('',*,*,#322,.F.);
#148=ORIENTED_EDGE('',*,*,#253,.F.);
#149=ORIENTED_EDGE('',*,*,#327,.F.);
#150=ORIENTED_EDGE('',*,*,#314,.F.);
#151=ORIENTED_EDGE('',*,*,#328,.F.);
#152=ORIENTED_EDGE('',*,*,#282,.F.);
#153=ORIENTED_EDGE('',*,*,#329,.F.);
#154=ORIENTED_EDGE('',*,*,#280,.F.);
#155=ORIENTED_EDGE('',*,*,#330,.F.);
#156=ORIENTED_EDGE('',*,*,#310,.F.);
#157=ORIENTED_EDGE('',*,*,#328,.T.);
#158=ORIENTED_EDGE('',*,*,#313,.F.);
#159=ORIENTED_EDGE('',*,*,#331,.F.);
#160=ORIENTED_EDGE('',*,*,#326,.F.);
#161=ORIENTED_EDGE('',*,*,#330,.T.);
#162=ORIENTED_EDGE('',*,*,#325,.F.);
#163=ORIENTED_EDGE('',*,*,#332,.F.);
#164=ORIENTED_EDGE('',*,*,#311,.F.);
#165=ORIENTED_EDGE('',*,*,#331,.T.);
#166=ORIENTED_EDGE('',*,*,#312,.F.);
#167=ORIENTED_EDGE('',*,*,#332,.T.);
#168=ORIENTED_EDGE('',*,*,#323,.F.);
#169=ORIENTED_EDGE('',*,*,#285,.T.);
#170=ORIENTED_EDGE('',*,*,#333,.T.);
#171=ORIENTED_EDGE('',*,*,#308,.F.);
#172=ORIENTED_EDGE('',*,*,#334,.F.);
#173=ORIENTED_EDGE('',*,*,#286,.T.);
#174=ORIENTED_EDGE('',*,*,#334,.T.);
#175=ORIENTED_EDGE('',*,*,#321,.F.);
#176=ORIENTED_EDGE('',*,*,#335,.F.);
#177=ORIENTED_EDGE('',*,*,#287,.T.);
#178=ORIENTED_EDGE('',*,*,#335,.T.);
#179=ORIENTED_EDGE('',*,*,#320,.F.);
#180=ORIENTED_EDGE('',*,*,#336,.F.);
#181=ORIENTED_EDGE('',*,*,#288,.T.);
#182=ORIENTED_EDGE('',*,*,#336,.T.);
#183=ORIENTED_EDGE('',*,*,#319,.F.);
#184=ORIENTED_EDGE('',*,*,#337,.F.);
#185=ORIENTED_EDGE('',*,*,#289,.T.);
#186=ORIENTED_EDGE('',*,*,#337,.T.);
#187=ORIENTED_EDGE('',*,*,#318,.F.);
#188=ORIENTED_EDGE('',*,*,#338,.F.);
#189=ORIENTED_EDGE('',*,*,#290,.T.);
#190=ORIENTED_EDGE('',*,*,#338,.T.);
#191=ORIENTED_EDGE('',*,*,#317,.F.);
#192=ORIENTED_EDGE('',*,*,#339,.F.);
#193=ORIENTED_EDGE('',*,*,#291,.T.);
#194=ORIENTED_EDGE('',*,*,#339,.T.);
#195=ORIENTED_EDGE('',*,*,#316,.F.);
#196=ORIENTED_EDGE('',*,*,#340,.F.);
#197=ORIENTED_EDGE('',*,*,#251,.T.);
#198=ORIENTED_EDGE('',*,*,#307,.T.);
#199=ORIENTED_EDGE('',*,*,#292,.T.);
#200=ORIENTED_EDGE('',*,*,#340,.T.);
#201=ORIENTED_EDGE('',*,*,#315,.F.);
#202=ORIENTED_EDGE('',*,*,#327,.T.);
#203=ORIENTED_EDGE('',*,*,#281,.F.);
#204=ORIENTED_EDGE('',*,*,#257,.T.);
#205=ORIENTED_EDGE('',*,*,#278,.T.);
#206=ORIENTED_EDGE('',*,*,#329,.T.);
#207=ORIENTED_EDGE('',*,*,#309,.F.);
#208=ORIENTED_EDGE('',*,*,#333,.F.);
#209=ORIENTED_EDGE('',*,*,#284,.T.);
#210=ORIENTED_EDGE('',*,*,#303,.T.);
#211=ORIENTED_EDGE('',*,*,#244,.F.);
#212=ORIENTED_EDGE('',*,*,#273,.F.);
#213=ORIENTED_EDGE('',*,*,#341,.T.);
#214=ORIENTED_EDGE('',*,*,#342,.T.);
#215=ORIENTED_EDGE('',*,*,#246,.T.);
#216=ORIENTED_EDGE('',*,*,#343,.F.);
#217=ORIENTED_EDGE('',*,*,#344,.F.);
#218=ORIENTED_EDGE('',*,*,#277,.T.);
#219=ORIENTED_EDGE('',*,*,#245,.T.);
#220=ORIENTED_EDGE('',*,*,#342,.F.);
#221=ORIENTED_EDGE('',*,*,#345,.F.);
#222=ORIENTED_EDGE('',*,*,#343,.T.);
#223=ORIENTED_EDGE('',*,*,#341,.F.);
#224=ORIENTED_EDGE('',*,*,#272,.F.);
#225=ORIENTED_EDGE('',*,*,#344,.T.);
#226=ORIENTED_EDGE('',*,*,#345,.T.);
#227=ORIENTED_EDGE('',*,*,#260,.F.);
#228=ORIENTED_EDGE('',*,*,#267,.F.);
#229=ORIENTED_EDGE('',*,*,#346,.T.);
#230=ORIENTED_EDGE('',*,*,#347,.T.);
#231=ORIENTED_EDGE('',*,*,#262,.T.);
#232=ORIENTED_EDGE('',*,*,#348,.F.);
#233=ORIENTED_EDGE('',*,*,#349,.F.);
#234=ORIENTED_EDGE('',*,*,#271,.T.);
#235=ORIENTED_EDGE('',*,*,#261,.F.);
#236=ORIENTED_EDGE('',*,*,#347,.F.);
#237=ORIENTED_EDGE('',*,*,#350,.T.);
#238=ORIENTED_EDGE('',*,*,#348,.T.);
#239=ORIENTED_EDGE('',*,*,#346,.F.);
#240=ORIENTED_EDGE('',*,*,#266,.F.);
#241=ORIENTED_EDGE('',*,*,#349,.T.);
#242=ORIENTED_EDGE('',*,*,#350,.F.);
#243=EDGE_CURVE('',#351,#352,#423,.T.);
#244=EDGE_CURVE('',#351,#353,#424,.T.);
#245=EDGE_CURVE('',#354,#353,#425,.T.);
#246=EDGE_CURVE('',#355,#354,#426,.T.);
#247=EDGE_CURVE('',#356,#355,#427,.T.);
#248=EDGE_CURVE('',#357,#356,#17,.T.);
#249=EDGE_CURVE('',#358,#357,#428,.T.);
#250=EDGE_CURVE('',#359,#358,#429,.T.);
#251=EDGE_CURVE('',#360,#359,#430,.T.);
#252=EDGE_CURVE('',#360,#361,#431,.T.);
#253=EDGE_CURVE('',#361,#362,#432,.F.);
#254=EDGE_CURVE('',#362,#363,#433,.T.);
#255=EDGE_CURVE('',#363,#364,#434,.T.);
#256=EDGE_CURVE('',#365,#364,#435,.T.);
#257=EDGE_CURVE('',#366,#365,#436,.T.);
#258=EDGE_CURVE('',#367,#366,#18,.T.);
#259=EDGE_CURVE('',#368,#367,#437,.T.);
#260=EDGE_CURVE('',#368,#369,#438,.T.);
#261=EDGE_CURVE('',#369,#370,#439,.T.);
#262=EDGE_CURVE('',#371,#370,#440,.T.);
#263=EDGE_CURVE('',#372,#371,#441,.T.);
#264=EDGE_CURVE('',#373,#372,#19,.T.);
#265=EDGE_CURVE('',#352,#373,#442,.T.);
#266=EDGE_CURVE('',#374,#375,#443,.T.);
#267=EDGE_CURVE('',#375,#368,#444,.T.);
#268=EDGE_CURVE('',#367,#376,#445,.T.);
#269=EDGE_CURVE('',#377,#376,#446,.T.);
#270=EDGE_CURVE('',#372,#377,#447,.T.);
#271=EDGE_CURVE('',#374,#371,#448,.T.);
#272=EDGE_CURVE('',#378,#379,#449,.T.);
#273=EDGE_CURVE('',#379,#351,#450,.T.);
#274=EDGE_CURVE('',#352,#380,#451,.T.);
#275=EDGE_CURVE('',#381,#380,#452,.T.);
#276=EDGE_CURVE('',#356,#381,#453,.T.);
#277=EDGE_CURVE('',#378,#355,#454,.T.);
#278=EDGE_CURVE('',#365,#382,#455,.T.);
#279=EDGE_CURVE('',#364,#383,#456,.T.);
#280=EDGE_CURVE('',#383,#382,#457,.T.);
#281=EDGE_CURVE('',#360,#384,#458,.T.);
#282=EDGE_CURVE('',#384,#385,#459,.T.);
#283=EDGE_CURVE('',#385,#361,#460,.T.);
#284=EDGE_CURVE('',#386,#387,#461,.T.);
#285=EDGE_CURVE('',#388,#386,#462,.T.);
#286=EDGE_CURVE('',#389,#388,#463,.T.);
#287=EDGE_CURVE('',#390,#389,#464,.T.);
#288=EDGE_CURVE('',#391,#390,#465,.T.);
#289=EDGE_CURVE('',#392,#391,#466,.T.);
#290=EDGE_CURVE('',#393,#392,#467,.T.);
#291=EDGE_CURVE('',#394,#393,#468,.T.);
#292=EDGE_CURVE('',#395,#394,#469,.T.);
#293=EDGE_CURVE('',#395,#396,#470,.T.);
#294=EDGE_CURVE('',#396,#397,#471,.T.);
#295=EDGE_CURVE('',#397,#381,#20,.T.);
#296=EDGE_CURVE('',#380,#398,#472,.T.);
#297=EDGE_CURVE('',#398,#377,#21,.T.);
#298=EDGE_CURVE('',#376,#387,#22,.T.);
#299=EDGE_CURVE('',#399,#399,#23,.T.);
#300=EDGE_CURVE('',#400,#400,#24,.T.);
#301=EDGE_CURVE('',#401,#401,#25,.T.);
#302=EDGE_CURVE('',#402,#402,#26,.T.);
#303=EDGE_CURVE('',#387,#366,#473,.F.);
#304=EDGE_CURVE('',#373,#398,#474,.T.);
#305=EDGE_CURVE('',#357,#397,#475,.T.);
#306=EDGE_CURVE('',#358,#396,#476,.T.);
#307=EDGE_CURVE('',#359,#395,#477,.T.);
#308=EDGE_CURVE('',#403,#404,#478,.T.);
#309=EDGE_CURVE('',#404,#405,#479,.T.);
#310=EDGE_CURVE('',#405,#406,#480,.T.);
#311=EDGE_CURVE('',#406,#407,#481,.T.);
#312=EDGE_CURVE('',#407,#408,#482,.T.);
#313=EDGE_CURVE('',#408,#409,#483,.T.);
#314=EDGE_CURVE('',#409,#410,#484,.T.);
#315=EDGE_CURVE('',#410,#411,#485,.T.);
#316=EDGE_CURVE('',#411,#412,#486,.T.);
#317=EDGE_CURVE('',#412,#413,#487,.T.);
#318=EDGE_CURVE('',#413,#414,#488,.T.);
#319=EDGE_CURVE('',#414,#415,#489,.T.);
#320=EDGE_CURVE('',#415,#416,#490,.T.);
#321=EDGE_CURVE('',#416,#403,#491,.T.);
#322=EDGE_CURVE('',#362,#417,#492,.T.);
#323=EDGE_CURVE('',#417,#418,#493,.T.);
#324=EDGE_CURVE('',#418,#363,#494,.T.);
#325=EDGE_CURVE('',#418,#383,#495,.T.);
#326=EDGE_CURVE('',#385,#417,#496,.F.);
#327=EDGE_CURVE('',#410,#384,#497,.T.);
#328=EDGE_CURVE('',#385,#409,#498,.F.);
#329=EDGE_CURVE('',#382,#405,#499,.F.);
#330=EDGE_CURVE('',#406,#383,#500,.T.);
#331=EDGE_CURVE('',#417,#408,#501,.T.);
#332=EDGE_CURVE('',#407,#418,#502,.F.);
#333=EDGE_CURVE('',#386,#404,#503,.T.);
#334=EDGE_CURVE('',#388,#403,#504,.T.);
#335=EDGE_CURVE('',#389,#416,#505,.T.);
#336=EDGE_CURVE('',#390,#415,#506,.T.);
#337=EDGE_CURVE('',#391,#414,#507,.T.);
#338=EDGE_CURVE('',#392,#413,#508,.T.);
#339=EDGE_CURVE('',#393,#412,#509,.T.);
#340=EDGE_CURVE('',#394,#411,#510,.T.);
#341=EDGE_CURVE('',#379,#419,#511,.T.);
#342=EDGE_CURVE('',#419,#353,#512,.T.);
#343=EDGE_CURVE('',#420,#354,#513,.T.);
#344=EDGE_CURVE('',#378,#420,#514,.T.);
#345=EDGE_CURVE('',#420,#419,#515,.T.);
#346=EDGE_CURVE('',#375,#421,#516,.T.);
#347=EDGE_CURVE('',#421,#369,#517,.T.);
#348=EDGE_CURVE('',#422,#370,#518,.T.);
#349=EDGE_CURVE('',#374,#422,#519,.T.);
#350=EDGE_CURVE('',#421,#422,#520,.T.);
#351=VERTEX_POINT('',#1062);
#352=VERTEX_POINT('',#1063);
#353=VERTEX_POINT('',#1065);
#354=VERTEX_POINT('',#1067);
#355=VERTEX_POINT('',#1069);
#356=VERTEX_POINT('',#1071);
#357=VERTEX_POINT('',#1073);
#358=VERTEX_POINT('',#1075);
#359=VERTEX_POINT('',#1077);
#360=VERTEX_POINT('',#1079);
#361=VERTEX_POINT('',#1081);
#362=VERTEX_POINT('',#1083);
#363=VERTEX_POINT('',#1085);
#364=VERTEX_POINT('',#1087);
#365=VERTEX_POINT('',#1089);
#366=VERTEX_POINT('',#1091);
#367=VERTEX_POINT('',#1093);
#368=VERTEX_POINT('',#1095);
#369=VERTEX_POINT('',#1097);
#370=VERTEX_POINT('',#1099);
#371=VERTEX_POINT('',#1101);
#372=VERTEX_POINT('',#1103);
#373=VERTEX_POINT('',#1105);
#374=VERTEX_POINT('',#1109);
#375=VERTEX_POINT('',#1110);
#376=VERTEX_POINT('',#1113);
#377=VERTEX_POINT('',#1115);
#378=VERTEX_POINT('',#1120);
#379=VERTEX_POINT('',#1121);
#380=VERTEX_POINT('',#1124);
#381=VERTEX_POINT('',#1126);
#382=VERTEX_POINT('',#1131);
#383=VERTEX_POINT('',#1133);
#384=VERTEX_POINT('',#1137);
#385=VERTEX_POINT('',#1139);
#386=VERTEX_POINT('',#1143);
#387=VERTEX_POINT('',#1144);
#388=VERTEX_POINT('',#1146);
#389=VERTEX_POINT('',#1148);
#390=VERTEX_POINT('',#1150);
#391=VERTEX_POINT('',#1152);
#392=VERTEX_POINT('',#1154);
#393=VERTEX_POINT('',#1156);
#394=VERTEX_POINT('',#1158);
#395=VERTEX_POINT('',#1160);
#396=VERTEX_POINT('',#1162);
#397=VERTEX_POINT('',#1164);
#398=VERTEX_POINT('',#1167);
#399=VERTEX_POINT('',#1171);
#400=VERTEX_POINT('',#1173);
#401=VERTEX_POINT('',#1176);
#402=VERTEX_POINT('',#1180);
#403=VERTEX_POINT('',#1195);
#404=VERTEX_POINT('',#1196);
#405=VERTEX_POINT('',#1198);
#406=VERTEX_POINT('',#1200);
#407=VERTEX_POINT('',#1202);
#408=VERTEX_POINT('',#1204);
#409=VERTEX_POINT('',#1206);
#410=VERTEX_POINT('',#1208);
#411=VERTEX_POINT('',#1210);
#412=VERTEX_POINT('',#1212);
#413=VERTEX_POINT('',#1214);
#414=VERTEX_POINT('',#1216);
#415=VERTEX_POINT('',#1218);
#416=VERTEX_POINT('',#1220);
#417=VERTEX_POINT('',#1224);
#418=VERTEX_POINT('',#1226);
#419=VERTEX_POINT('',#1262);
#420=VERTEX_POINT('',#1266);
#421=VERTEX_POINT('',#1273);
#422=VERTEX_POINT('',#1277);
#423=LINE('',#1061,#521);
#424=LINE('',#1064,#522);
#425=LINE('',#1066,#523);
#426=LINE('',#1068,#524);
#427=LINE('',#1070,#525);
#428=LINE('',#1074,#526);
#429=LINE('',#1076,#527);
#430=LINE('',#1078,#528);
#431=LINE('',#1080,#529);
#432=LINE('',#1082,#530);
#433=LINE('',#1084,#531);
#434=LINE('',#1086,#532);
#435=LINE('',#1088,#533);
#436=LINE('',#1090,#534);
#437=LINE('',#1094,#535);
#438=LINE('',#1096,#536);
#439=LINE('',#1098,#537);
#440=LINE('',#1100,#538);
#441=LINE('',#1102,#539);
#442=LINE('',#1106,#540);
#443=LINE('',#1108,#541);
#444=LINE('',#1111,#542);
#445=LINE('',#1112,#543);
#446=LINE('',#1114,#544);
#447=LINE('',#1116,#545);
#448=LINE('',#1117,#546);
#449=LINE('',#1119,#547);
#450=LINE('',#1122,#548);
#451=LINE('',#1123,#549);
#452=LINE('',#1125,#550);
#453=LINE('',#1127,#551);
#454=LINE('',#1128,#552);
#455=LINE('',#1130,#553);
#456=LINE('',#1132,#554);
#457=LINE('',#1134,#555);
#458=LINE('',#1136,#556);
#459=LINE('',#1138,#557);
#460=LINE('',#1140,#558);
#461=LINE('',#1142,#559);
#462=LINE('',#1145,#560);
#463=LINE('',#1147,#561);
#464=LINE('',#1149,#562);
#465=LINE('',#1151,#563);
#466=LINE('',#1153,#564);
#467=LINE('',#1155,#565);
#468=LINE('',#1157,#566);
#469=LINE('',#1159,#567);
#470=LINE('',#1161,#568);
#471=LINE('',#1163,#569);
#472=LINE('',#1166,#570);
#473=LINE('',#1183,#571);
#474=LINE('',#1185,#572);
#475=LINE('',#1188,#573);
#476=LINE('',#1190,#574);
#477=LINE('',#1192,#575);
#478=LINE('',#1194,#576);
#479=LINE('',#1197,#577);
#480=LINE('',#1199,#578);
#481=LINE('',#1201,#579);
#482=LINE('',#1203,#580);
#483=LINE('',#1205,#581);
#484=LINE('',#1207,#582);
#485=LINE('',#1209,#583);
#486=LINE('',#1211,#584);
#487=LINE('',#1213,#585);
#488=LINE('',#1215,#586);
#489=LINE('',#1217,#587);
#490=LINE('',#1219,#588);
#491=LINE('',#1221,#589);
#492=LINE('',#1223,#590);
#493=LINE('',#1225,#591);
#494=LINE('',#1227,#592);
#495=LINE('',#1229,#593);
#496=LINE('',#1231,#594);
#497=LINE('',#1233,#595);
#498=LINE('',#1234,#596);
#499=LINE('',#1236,#597);
#500=LINE('',#1237,#598);
#501=LINE('',#1239,#599);
#502=LINE('',#1241,#600);
#503=LINE('',#1244,#601);
#504=LINE('',#1245,#602);
#505=LINE('',#1247,#603);
#506=LINE('',#1249,#604);
#507=LINE('',#1251,#605);
#508=LINE('',#1253,#606);
#509=LINE('',#1255,#607);
#510=LINE('',#1257,#608);
#511=LINE('',#1261,#609);
#512=LINE('',#1263,#610);
#513=LINE('',#1265,#611);
#514=LINE('',#1267,#612);
#515=LINE('',#1269,#613);
#516=LINE('',#1272,#614);
#517=LINE('',#1274,#615);
#518=LINE('',#1276,#616);
#519=LINE('',#1278,#617);
#520=LINE('',#1280,#618);
#521=VECTOR('',#859,1.);
#522=VECTOR('',#860,1.);
#523=VECTOR('',#861,1.);
#524=VECTOR('',#862,1.);
#525=VECTOR('',#863,1.);
#526=VECTOR('',#866,1.);
#527=VECTOR('',#867,1.);
#528=VECTOR('',#868,1.);
#529=VECTOR('',#869,1.);
#530=VECTOR('',#870,1.);
#531=VECTOR('',#871,1.);
#532=VECTOR('',#872,1.);
#533=VECTOR('',#873,1.);
#534=VECTOR('',#874,1.);
#535=VECTOR('',#877,1.);
#536=VECTOR('',#878,1.);
#537=VECTOR('',#879,1.);
#538=VECTOR('',#880,1.);
#539=VECTOR('',#881,1.);
#540=VECTOR('',#884,1.);
#541=VECTOR('',#887,1.);
#542=VECTOR('',#888,1.);
#543=VECTOR('',#889,1.);
#544=VECTOR('',#890,1.);
#545=VECTOR('',#891,1.);
#546=VECTOR('',#892,1.);
#547=VECTOR('',#895,1.);
#548=VECTOR('',#896,1.);
#549=VECTOR('',#897,1.);
#550=VECTOR('',#898,1.);
#551=VECTOR('',#899,1.);
#552=VECTOR('',#900,1.);
#553=VECTOR('',#903,1.);
#554=VECTOR('',#904,1.);
#555=VECTOR('',#905,1.);
#556=VECTOR('',#908,1.);
#557=VECTOR('',#909,1.);
#558=VECTOR('',#910,1.);
#559=VECTOR('',#913,1.);
#560=VECTOR('',#914,1.);
#561=VECTOR('',#915,1.);
#562=VECTOR('',#916,1.);
#563=VECTOR('',#917,1.);
#564=VECTOR('',#918,1.);
#565=VECTOR('',#919,1.);
#566=VECTOR('',#920,1.);
#567=VECTOR('',#921,1.);
#568=VECTOR('',#922,1.);
#569=VECTOR('',#923,1.);
#570=VECTOR('',#926,1.);
#571=VECTOR('',#949,1.);
#572=VECTOR('',#952,1.);
#573=VECTOR('',#957,1.);
#574=VECTOR('',#960,1.);
#575=VECTOR('',#963,1.);
#576=VECTOR('',#966,1.);
#577=VECTOR('',#967,1.);
#578=VECTOR('',#968,1.);
#579=VECTOR('',#969,1.);
#580=VECTOR('',#970,1.);
#581=VECTOR('',#971,1.);
#582=VECTOR('',#972,1.);
#583=VECTOR('',#973,1.);
#584=VECTOR('',#974,1.);
#585=VECTOR('',#975,1.);
#586=VECTOR('',#976,1.);
#587=VECTOR('',#977,1.);
#588=VECTOR('',#978,1.);
#589=VECTOR('',#979,1.);
#590=VECTOR('',#982,1.);
#591=VECTOR('',#983,1.);
#592=VECTOR('',#984,1.);
#593=VECTOR('',#987,1.);
#594=VECTOR('',#990,1.);
#595=VECTOR('',#993,1.);
#596=VECTOR('',#994,1.);
#597=VECTOR('',#997,1.);
#598=VECTOR('',#998,1.);
#599=VECTOR('',#1001,1.);
#600=VECTOR('',#1004,1.);
#601=VECTOR('',#1009,1.);
#602=VECTOR('',#1010,1.);
#603=VECTOR('',#1013,1.);
#604=VECTOR('',#1016,1.);
#605=VECTOR('',#1019,1.);
#606=VECTOR('',#1022,1.);
#607=VECTOR('',#1025,1.);
#608=VECTOR('',#1028,1.);
#609=VECTOR('',#1035,1.);
#610=VECTOR('',#1036,1.);
#611=VECTOR('',#1039,1.);
#612=VECTOR('',#1040,1.);
#613=VECTOR('',#1043,1.);
#614=VECTOR('',#1048,1.);
#615=VECTOR('',#1049,1.);
#616=VECTOR('',#1052,1.);
#617=VECTOR('',#1053,1.);
#618=VECTOR('',#1056,1.);
#619=EDGE_LOOP('',(#27,#28,#29,#30,#31,#32,#33,#34,#35,#36,#37,#38,#39,
#40,#41,#42,#43,#44,#45,#46,#47,#48,#49));
#620=EDGE_LOOP('',(#50,#51,#52,#53,#54,#55,#56,#57));
#621=EDGE_LOOP('',(#58,#59,#60,#61,#62,#63,#64,#65));
#622=EDGE_LOOP('',(#66,#67,#68,#69));
#623=EDGE_LOOP('',(#70,#71,#72,#73));
#624=EDGE_LOOP('',(#74,#75,#76,#77,#78,#79,#80,#81,#82,#83,#84,#85,#86,
#87,#88,#89,#90));
#625=EDGE_LOOP('',(#91));
#626=EDGE_LOOP('',(#92));
#627=EDGE_LOOP('',(#93));
#628=EDGE_LOOP('',(#94));
#629=EDGE_LOOP('',(#95));
#630=EDGE_LOOP('',(#96));
#631=EDGE_LOOP('',(#97));
#632=EDGE_LOOP('',(#98));
#633=EDGE_LOOP('',(#99,#100,#101,#102));
#634=EDGE_LOOP('',(#103,#104,#105,#106));
#635=EDGE_LOOP('',(#107,#108,#109,#110));
#636=EDGE_LOOP('',(#111,#112,#113,#114));
#637=EDGE_LOOP('',(#115,#116,#117,#118));
#638=EDGE_LOOP('',(#119,#120,#121,#122));
#639=EDGE_LOOP('',(#123,#124,#125,#126,#127,#128,#129,#130,#131,#132,#133,
#134,#135,#136));
#640=EDGE_LOOP('',(#137,#138,#139,#140));
#641=EDGE_LOOP('',(#141,#142,#143,#144));
#642=EDGE_LOOP('',(#145,#146,#147,#148));
#643=EDGE_LOOP('',(#149,#150,#151,#152));
#644=EDGE_LOOP('',(#153,#154,#155,#156));
#645=EDGE_LOOP('',(#157,#158,#159,#160));
#646=EDGE_LOOP('',(#161,#162,#163,#164));
#647=EDGE_LOOP('',(#165,#166,#167,#168));
#648=EDGE_LOOP('',(#169,#170,#171,#172));
#649=EDGE_LOOP('',(#173,#174,#175,#176));
#650=EDGE_LOOP('',(#177,#178,#179,#180));
#651=EDGE_LOOP('',(#181,#182,#183,#184));
#652=EDGE_LOOP('',(#185,#186,#187,#188));
#653=EDGE_LOOP('',(#189,#190,#191,#192));
#654=EDGE_LOOP('',(#193,#194,#195,#196));
#655=EDGE_LOOP('',(#197,#198,#199,#200,#201,#202,#203));
#656=EDGE_LOOP('',(#204,#205,#206,#207,#208,#209,#210));
#657=EDGE_LOOP('',(#211,#212,#213,#214));
#658=EDGE_LOOP('',(#215,#216,#217,#218));
#659=EDGE_LOOP('',(#219,#220,#221,#222));
#660=EDGE_LOOP('',(#223,#224,#225,#226));
#661=EDGE_LOOP('',(#227,#228,#229,#230));
#662=EDGE_LOOP('',(#231,#232,#233,#234));
#663=EDGE_LOOP('',(#235,#236,#237,#238));
#664=EDGE_LOOP('',(#239,#240,#241,#242));
#665=FACE_BOUND('',#619,.T.);
#666=FACE_BOUND('',#620,.T.);
#667=FACE_BOUND('',#621,.T.);
#668=FACE_BOUND('',#622,.T.);
#669=FACE_BOUND('',#623,.T.);
#670=FACE_BOUND('',#624,.T.);
#671=FACE_BOUND('',#625,.T.);
#672=FACE_BOUND('',#626,.T.);
#673=FACE_BOUND('',#627,.T.);
#674=FACE_BOUND('',#628,.T.);
#675=FACE_BOUND('',#629,.T.);
#676=FACE_BOUND('',#630,.T.);
#677=FACE_BOUND('',#631,.T.);
#678=FACE_BOUND('',#632,.T.);
#679=FACE_BOUND('',#633,.T.);
#680=FACE_BOUND('',#634,.T.);
#681=FACE_BOUND('',#635,.T.);
#682=FACE_BOUND('',#636,.T.);
#683=FACE_BOUND('',#637,.T.);
#684=FACE_BOUND('',#638,.T.);
#685=FACE_BOUND('',#639,.T.);
#686=FACE_BOUND('',#640,.T.);
#687=FACE_BOUND('',#641,.T.);
#688=FACE_BOUND('',#642,.T.);
#689=FACE_BOUND('',#643,.T.);
#690=FACE_BOUND('',#644,.T.);
#691=FACE_BOUND('',#645,.T.);
#692=FACE_BOUND('',#646,.T.);
#693=FACE_BOUND('',#647,.T.);
#694=FACE_BOUND('',#648,.T.);
#695=FACE_BOUND('',#649,.T.);
#696=FACE_BOUND('',#650,.T.);
#697=FACE_BOUND('',#651,.T.);
#698=FACE_BOUND('',#652,.T.);
#699=FACE_BOUND('',#653,.T.);
#700=FACE_BOUND('',#654,.T.);
#701=FACE_BOUND('',#655,.T.);
#702=FACE_BOUND('',#656,.T.);
#703=FACE_BOUND('',#657,.T.);
#704=FACE_BOUND('',#658,.T.);
#705=FACE_BOUND('',#659,.T.);
#706=FACE_BOUND('',#660,.T.);
#707=FACE_BOUND('',#661,.T.);
#708=FACE_BOUND('',#662,.T.);
#709=FACE_BOUND('',#663,.T.);
#710=FACE_BOUND('',#664,.T.);
#711=PLANE('',#803);
#712=PLANE('',#807);
#713=PLANE('',#808);
#714=PLANE('',#809);
#715=PLANE('',#810);
#716=PLANE('',#811);
#717=PLANE('',#819);
#718=PLANE('',#822);
#719=PLANE('',#825);
#720=PLANE('',#827);
#721=PLANE('',#828);
#722=PLANE('',#829);
#723=PLANE('',#830);
#724=PLANE('',#831);
#725=PLANE('',#832);
#726=PLANE('',#833);
#727=PLANE('',#834);
#728=PLANE('',#835);
#729=PLANE('',#836);
#730=PLANE('',#837);
#731=PLANE('',#838);
#732=PLANE('',#839);
#733=PLANE('',#840);
#734=PLANE('',#841);
#735=PLANE('',#842);
#736=PLANE('',#843);
#737=PLANE('',#844);
#738=PLANE('',#845);
#739=PLANE('',#846);
#740=PLANE('',#847);
#741=PLANE('',#848);
#742=PLANE('',#849);
#743=PLANE('',#850);
#744=PLANE('',#851);
#745=PLANE('',#852);
#746=PLANE('',#853);
#747=PLANE('',#854);
#748=ADVANCED_FACE('',(#665),#711,.T.);
#749=ADVANCED_FACE('',(#666),#712,.T.);
#750=ADVANCED_FACE('',(#667),#713,.T.);
#751=ADVANCED_FACE('',(#668),#714,.F.);
#752=ADVANCED_FACE('',(#669),#715,.T.);
#753=ADVANCED_FACE('',(#670,#671,#672),#716,.T.);
#754=ADVANCED_FACE('',(#673,#674),#12,.F.);
#755=ADVANCED_FACE('',(#675),#717,.T.);
#756=ADVANCED_FACE('',(#676,#677),#13,.F.);
#757=ADVANCED_FACE('',(#678),#718,.T.);
#758=ADVANCED_FACE('',(#679),#14,.F.);
#759=ADVANCED_FACE('',(#680),#15,.F.);
#760=ADVANCED_FACE('',(#681),#719,.T.);
#761=ADVANCED_FACE('',(#682),#16,.F.);
#762=ADVANCED_FACE('',(#683),#720,.T.);
#763=ADVANCED_FACE('',(#684),#721,.T.);
#764=ADVANCED_FACE('',(#685),#722,.F.);
#765=ADVANCED_FACE('',(#686),#723,.T.);
#766=ADVANCED_FACE('',(#687),#724,.T.);
#767=ADVANCED_FACE('',(#688),#725,.F.);
#768=ADVANCED_FACE('',(#689),#726,.T.);
#769=ADVANCED_FACE('',(#690),#727,.F.);
#770=ADVANCED_FACE('',(#691),#728,.F.);
#771=ADVANCED_FACE('',(#692),#729,.T.);
#772=ADVANCED_FACE('',(#693),#730,.T.);
#773=ADVANCED_FACE('',(#694),#731,.F.);
#774=ADVANCED_FACE('',(#695),#732,.F.);
#775=ADVANCED_FACE('',(#696),#733,.F.);
#776=ADVANCED_FACE('',(#697),#734,.F.);
#777=ADVANCED_FACE('',(#698),#735,.F.);
#778=ADVANCED_FACE('',(#699),#736,.F.);
#779=ADVANCED_FACE('',(#700),#737,.F.);
#780=ADVANCED_FACE('',(#701),#738,.F.);
#781=ADVANCED_FACE('',(#702),#739,.F.);
#782=ADVANCED_FACE('',(#703),#740,.T.);
#783=ADVANCED_FACE('',(#704),#741,.F.);
#784=ADVANCED_FACE('',(#705),#742,.F.);
#785=ADVANCED_FACE('',(#706),#743,.T.);
#786=ADVANCED_FACE('',(#707),#744,.T.);
#787=ADVANCED_FACE('',(#708),#745,.F.);
#788=ADVANCED_FACE('',(#709),#746,.T.);
#789=ADVANCED_FACE('',(#710),#747,.T.);
#790=CLOSED_SHELL('',(#748,#749,#750,#751,#752,#753,#754,#755,#756,#757,
#758,#759,#760,#761,#762,#763,#764,#765,#766,#767,#768,#769,#770,#771,#772,
#773,#774,#775,#776,#777,#778,#779,#780,#781,#782,#783,#784,#785,#786,#787,
#788,#789));
#791=STYLED_ITEM('',(#792),#799);
#792=PRESENTATION_STYLE_ASSIGNMENT((#793));
#793=SURFACE_STYLE_USAGE(.BOTH.,#794);
#794=SURFACE_SIDE_STYLE('',(#795));
#795=SURFACE_STYLE_FILL_AREA(#796);
#796=FILL_AREA_STYLE('',(#797));
#797=FILL_AREA_STYLE_COLOUR('',#798);
#798=COLOUR_RGB('',0.647058823529412,0.647058823529412,0.647058823529412);
#799=MANIFOLD_SOLID_BREP('Bottom1',#790);
#800=SHAPE_DEFINITION_REPRESENTATION(#1288,#801);
#801=SHAPE_REPRESENTATION('Bottom1',(#802),#1283);
#802=AXIS2_PLACEMENT_3D('',#1059,#855,#856);
#803=AXIS2_PLACEMENT_3D('',#1060,#857,#858);
#804=AXIS2_PLACEMENT_3D('',#1072,#864,#865);
#805=AXIS2_PLACEMENT_3D('',#1092,#875,#876);
#806=AXIS2_PLACEMENT_3D('',#1104,#882,#883);
#807=AXIS2_PLACEMENT_3D('',#1107,#885,#886);
#808=AXIS2_PLACEMENT_3D('',#1118,#893,#894);
#809=AXIS2_PLACEMENT_3D('',#1129,#901,#902);
#810=AXIS2_PLACEMENT_3D('',#1135,#906,#907);
#811=AXIS2_PLACEMENT_3D('',#1141,#911,#912);
#812=AXIS2_PLACEMENT_3D('',#1165,#924,#925);
#813=AXIS2_PLACEMENT_3D('',#1168,#927,#928);
#814=AXIS2_PLACEMENT_3D('',#1169,#929,#930);
#815=AXIS2_PLACEMENT_3D('',#1170,#931,#932);
#816=AXIS2_PLACEMENT_3D('',#1172,#933,#934);
#817=AXIS2_PLACEMENT_3D('',#1174,#935,#936);
#818=AXIS2_PLACEMENT_3D('',#1175,#937,#938);
#819=AXIS2_PLACEMENT_3D('',#1177,#939,#940);
#820=AXIS2_PLACEMENT_3D('',#1178,#941,#942);
#821=AXIS2_PLACEMENT_3D('',#1179,#943,#944);
#822=AXIS2_PLACEMENT_3D('',#1181,#945,#946);
#823=AXIS2_PLACEMENT_3D('',#1182,#947,#948);
#824=AXIS2_PLACEMENT_3D('',#1184,#950,#951);
#825=AXIS2_PLACEMENT_3D('',#1186,#953,#954);
#826=AXIS2_PLACEMENT_3D('',#1187,#955,#956);
#827=AXIS2_PLACEMENT_3D('',#1189,#958,#959);
#828=AXIS2_PLACEMENT_3D('',#1191,#961,#962);
#829=AXIS2_PLACEMENT_3D('',#1193,#964,#965);
#830=AXIS2_PLACEMENT_3D('',#1222,#980,#981);
#831=AXIS2_PLACEMENT_3D('',#1228,#985,#986);
#832=AXIS2_PLACEMENT_3D('',#1230,#988,#989);
#833=AXIS2_PLACEMENT_3D('',#1232,#991,#992);
#834=AXIS2_PLACEMENT_3D('',#1235,#995,#996);
#835=AXIS2_PLACEMENT_3D('',#1238,#999,#1000);
#836=AXIS2_PLACEMENT_3D('',#1240,#1002,#1003);
#837=AXIS2_PLACEMENT_3D('',#1242,#1005,#1006);
#838=AXIS2_PLACEMENT_3D('',#1243,#1007,#1008);
#839=AXIS2_PLACEMENT_3D('',#1246,#1011,#1012);
#840=AXIS2_PLACEMENT_3D('',#1248,#1014,#1015);
#841=AXIS2_PLACEMENT_3D('',#1250,#1017,#1018);
#842=AXIS2_PLACEMENT_3D('',#1252,#1020,#1021);
#843=AXIS2_PLACEMENT_3D('',#1254,#1023,#1024);
#844=AXIS2_PLACEMENT_3D('',#1256,#1026,#1027);
#845=AXIS2_PLACEMENT_3D('',#1258,#1029,#1030);
#846=AXIS2_PLACEMENT_3D('',#1259,#1031,#1032);
#847=AXIS2_PLACEMENT_3D('',#1260,#1033,#1034);
#848=AXIS2_PLACEMENT_3D('',#1264,#1037,#1038);
#849=AXIS2_PLACEMENT_3D('',#1268,#1041,#1042);
#850=AXIS2_PLACEMENT_3D('',#1270,#1044,#1045);
#851=AXIS2_PLACEMENT_3D('',#1271,#1046,#1047);
#852=AXIS2_PLACEMENT_3D('',#1275,#1050,#1051);
#853=AXIS2_PLACEMENT_3D('',#1279,#1054,#1055);
#854=AXIS2_PLACEMENT_3D('',#1281,#1057,#1058);
#855=DIRECTION('',(0.,0.,1.));
#856=DIRECTION('',(1.,0.,0.));
#857=DIRECTION('',(0.,0.,1.));
#858=DIRECTION('',(1.,0.,0.));
#859=DIRECTION('',(0.,1.,0.));
#860=DIRECTION('',(1.,0.,0.));
#861=DIRECTION('',(0.,1.,0.));
#862=DIRECTION('',(1.,0.,0.));
#863=DIRECTION('',(0.,1.,0.));
#864=DIRECTION('',(0.,0.,1.));
#865=DIRECTION('',(1.,0.,0.));
#866=DIRECTION('',(0.,1.,0.));
#867=DIRECTION('',(1.,0.,0.));
#868=DIRECTION('',(-1.22464679914735E-16,1.,0.));
#869=DIRECTION('',(1.,0.,0.));
#870=DIRECTION('',(-0.707106781186548,-0.707106781186547,0.));
#871=DIRECTION('',(0.,1.,0.));
#872=DIRECTION('',(-0.707106781186548,0.707106781186547,0.));
#873=DIRECTION('',(1.,0.,0.));
#874=DIRECTION('',(-1.22464679914735E-16,1.,0.));
#875=DIRECTION('',(0.,0.,1.));
#876=DIRECTION('',(1.,0.,0.));
#877=DIRECTION('',(-1.,-1.61128667186695E-17,0.));
#878=DIRECTION('',(0.,1.,0.));
#879=DIRECTION('',(1.,0.,0.));
#880=DIRECTION('',(0.,1.,0.));
#881=DIRECTION('',(-1.,-1.61128667186695E-17,0.));
#882=DIRECTION('',(0.,0.,1.));
#883=DIRECTION('',(1.,0.,0.));
#884=DIRECTION('',(-1.,0.,0.));
#885=DIRECTION('',(1.61128667186695E-17,-1.,0.));
#886=DIRECTION('',(1.,1.61128667186695E-17,0.));
#887=DIRECTION('',(-1.,-1.61128667186695E-17,0.));
#888=DIRECTION('',(0.,0.,1.));
#889=DIRECTION('',(0.,0.,-1.));
#890=DIRECTION('',(-1.,-1.61128667186695E-17,0.));
#891=DIRECTION('',(0.,0.,-1.));
#892=DIRECTION('',(0.,0.,1.));
#893=DIRECTION('',(-1.,0.,0.));
#894=DIRECTION('',(0.,0.,1.));
#895=DIRECTION('',(0.,1.,0.));
#896=DIRECTION('',(0.,0.,1.));
#897=DIRECTION('',(0.,0.,-1.));
#898=DIRECTION('',(0.,1.,0.));
#899=DIRECTION('',(0.,0.,-1.));
#900=DIRECTION('',(0.,0.,1.));
#901=DIRECTION('',(0.,-1.,0.));
#902=DIRECTION('',(0.,0.,-1.));
#903=DIRECTION('',(0.,0.,-1.));
#904=DIRECTION('',(0.,0.,-1.));
#905=DIRECTION('',(-1.,0.,0.));
#906=DIRECTION('',(0.,-1.,0.));
#907=DIRECTION('',(0.,0.,-1.));
#908=DIRECTION('',(0.,0.,-1.));
#909=DIRECTION('',(1.,0.,0.));
#910=DIRECTION('',(0.,0.,1.));
#911=DIRECTION('',(0.,0.,1.));
#912=DIRECTION('',(1.,0.,0.));
#913=DIRECTION('',(-1.22464679914735E-16,1.,0.));
#914=DIRECTION('',(-1.,0.,0.));
#915=DIRECTION('',(-1.22464679914735E-16,1.,0.));
#916=DIRECTION('',(-1.,0.,0.));
#917=DIRECTION('',(-1.22464679914735E-16,1.,0.));
#918=DIRECTION('',(-1.,0.,0.));
#919=DIRECTION('',(-1.22464679914735E-16,1.,0.));
#920=DIRECTION('',(-1.,0.,0.));
#921=DIRECTION('',(-1.22464679914735E-16,1.,0.));
#922=DIRECTION('',(1.,0.,0.));
#923=DIRECTION('',(0.,1.,0.));
#924=DIRECTION('',(0.,0.,1.));
#925=DIRECTION('',(1.,0.,0.));
#926=DIRECTION('',(-1.,0.,0.));
#927=DIRECTION('',(0.,0.,1.));
#928=DIRECTION('',(1.,0.,0.));
#929=DIRECTION('',(0.,0.,1.));
#930=DIRECTION('',(1.,0.,0.));
#931=DIRECTION('',(0.,0.,1.));
#932=DIRECTION('',(1.,0.,0.));
#933=DIRECTION('',(0.,0.,1.));
#934=DIRECTION('',(1.,0.,0.));
#935=DIRECTION('',(0.,0.,1.));
#936=DIRECTION('',(1.,0.,0.));
#937=DIRECTION('',(0.,0.,1.));
#938=DIRECTION('',(1.,0.,0.));
#939=DIRECTION('',(0.,0.,1.));
#940=DIRECTION('',(1.,0.,0.));
#941=DIRECTION('',(0.,0.,1.));
#942=DIRECTION('',(1.,0.,0.));
#943=DIRECTION('',(0.,0.,1.));
#944=DIRECTION('',(1.,0.,0.));
#945=DIRECTION('',(0.,0.,1.));
#946=DIRECTION('',(1.,0.,0.));
#947=DIRECTION('',(0.,0.,-1.));
#948=DIRECTION('',(-1.,0.,0.));
#949=DIRECTION('',(0.,0.,-1.));
#950=DIRECTION('',(0.,0.,-1.));
#951=DIRECTION('',(-1.,0.,0.));
#952=DIRECTION('',(0.,0.,-1.));
#953=DIRECTION('',(0.,-1.,0.));
#954=DIRECTION('',(0.,0.,-1.));
#955=DIRECTION('',(0.,0.,-1.));
#956=DIRECTION('',(-1.,0.,0.));
#957=DIRECTION('',(0.,0.,-1.));
#958=DIRECTION('',(-1.,0.,0.));
#959=DIRECTION('',(0.,0.,1.));
#960=DIRECTION('',(0.,0.,-1.));
#961=DIRECTION('',(0.,1.,0.));
#962=DIRECTION('',(0.,0.,1.));
#963=DIRECTION('',(0.,0.,-1.));
#964=DIRECTION('',(0.,0.,1.));
#965=DIRECTION('',(1.,0.,0.));
#966=DIRECTION('',(-1.,0.,0.));
#967=DIRECTION('',(-1.22464679914735E-16,1.,0.));
#968=DIRECTION('',(1.,0.,0.));
#969=DIRECTION('',(0.707106781186548,-0.707106781186547,0.));
#970=DIRECTION('',(0.,-1.,0.));
#971=DIRECTION('',(-0.707106781186548,-0.707106781186547,0.));
#972=DIRECTION('',(-1.,0.,0.));
#973=DIRECTION('',(-1.22464679914735E-16,1.,0.));
#974=DIRECTION('',(-1.,0.,0.));
#975=DIRECTION('',(-1.22464679914735E-16,1.,0.));
#976=DIRECTION('',(-1.,0.,0.));
#977=DIRECTION('',(-1.22464679914735E-16,1.,0.));
#978=DIRECTION('',(-1.,0.,0.));
#979=DIRECTION('',(-1.22464679914735E-16,1.,0.));
#980=DIRECTION('',(1.,0.,0.));
#981=DIRECTION('',(0.,0.,-1.));
#982=DIRECTION('',(0.,0.,-1.));
#983=DIRECTION('',(0.,1.,0.));
#984=DIRECTION('',(0.,0.,1.));
#985=DIRECTION('',(0.707106781186547,0.707106781186548,0.));
#986=DIRECTION('',(0.,0.,-1.));
#987=DIRECTION('',(-0.707106781186548,0.707106781186547,0.));
#988=DIRECTION('',(-0.707106781186547,0.707106781186548,0.));
#989=DIRECTION('',(0.,0.,1.));
#990=DIRECTION('',(-0.707106781186548,-0.707106781186547,0.));
#991=DIRECTION('',(0.,-0.707106781186547,-0.707106781186548));
#992=DIRECTION('',(-1.,0.,0.));
#993=DIRECTION('',(8.65956056235494E-17,-0.707106781186548,0.707106781186547));
#994=DIRECTION('',(0.281084637714832,-0.678598344545845,0.678598344545844));
#995=DIRECTION('',(0.,-0.707106781186548,0.707106781186547));
#996=DIRECTION('',(1.,0.,0.));
#997=DIRECTION('',(-8.65956056235493E-17,0.707106781186548,0.707106781186548));
#998=DIRECTION('',(0.281084637714828,0.678598344545845,0.678598344545846));
#999=DIRECTION('',(-0.5,0.5,0.707106781186553));
#1000=DIRECTION('',(-0.707106781186548,-0.707106781186547,0.));
#1001=DIRECTION('',(-0.678598344545845,0.281084637714833,-0.678598344545844));
#1002=DIRECTION('',(0.5,0.5,-0.70710678118655));
#1003=DIRECTION('',(-0.707106781186548,0.707106781186547,0.));
#1004=DIRECTION('',(-0.678598344545846,-0.281084637714827,-0.678598344545845));
#1005=DIRECTION('',(0.707106781186547,0.,-0.707106781186548));
#1006=DIRECTION('',(0.,-1.,0.));
#1007=DIRECTION('',(0.,1.,0.));
#1008=DIRECTION('',(0.,0.,1.));
#1009=DIRECTION('',(0.,0.,-1.));
#1010=DIRECTION('',(0.,0.,-1.));
#1011=DIRECTION('',(1.,1.22464679914735E-16,0.));
#1012=DIRECTION('',(-1.22464679914735E-16,1.,0.));
#1013=DIRECTION('',(0.,0.,-1.));
#1014=DIRECTION('',(0.,1.,0.));
#1015=DIRECTION('',(0.,0.,1.));
#1016=DIRECTION('',(0.,0.,-1.));
#1017=DIRECTION('',(1.,1.22464679914735E-16,0.));
#1018=DIRECTION('',(-1.22464679914735E-16,1.,0.));
#1019=DIRECTION('',(0.,0.,-1.));
#1020=DIRECTION('',(0.,1.,0.));
#1021=DIRECTION('',(0.,0.,1.));
#1022=DIRECTION('',(0.,0.,-1.));
#1023=DIRECTION('',(1.,1.22464679914735E-16,0.));
#1024=DIRECTION('',(-1.22464679914735E-16,1.,0.));
#1025=DIRECTION('',(0.,0.,-1.));
#1026=DIRECTION('',(0.,1.,0.));
#1027=DIRECTION('',(0.,0.,1.));
#1028=DIRECTION('',(0.,0.,-1.));
#1029=DIRECTION('',(1.,1.22464679914735E-16,0.));
#1030=DIRECTION('',(-1.22464679914735E-16,1.,0.));
#1031=DIRECTION('',(1.,1.22464679914735E-16,0.));
#1032=DIRECTION('',(-1.22464679914735E-16,1.,0.));
#1033=DIRECTION('',(0.,-1.,0.));
#1034=DIRECTION('',(0.,0.,-1.));
#1035=DIRECTION('',(1.,0.,0.));
#1036=DIRECTION('',(0.,0.,1.));
#1037=DIRECTION('',(0.,-1.,0.));
#1038=DIRECTION('',(0.,0.,-1.));
#1039=DIRECTION('',(0.,0.,1.));
#1040=DIRECTION('',(1.,0.,0.));
#1041=DIRECTION('',(1.,0.,0.));
#1042=DIRECTION('',(0.,0.,-1.));
#1043=DIRECTION('',(0.,1.,0.));
#1044=DIRECTION('',(0.,0.,1.));
#1045=DIRECTION('',(1.,0.,0.));
#1046=DIRECTION('',(1.,0.,0.));
#1047=DIRECTION('',(0.,0.,-1.));
#1048=DIRECTION('',(0.,1.,0.));
#1049=DIRECTION('',(0.,0.,1.));
#1050=DIRECTION('',(1.,0.,0.));
#1051=DIRECTION('',(0.,0.,-1.));
#1052=DIRECTION('',(0.,0.,1.));
#1053=DIRECTION('',(0.,1.,0.));
#1054=DIRECTION('',(0.,-1.,0.));
#1055=DIRECTION('',(0.,0.,-1.));
#1056=DIRECTION('',(1.,0.,0.));
#1057=DIRECTION('',(0.,0.,1.));
#1058=DIRECTION('',(1.,0.,0.));
#1059=CARTESIAN_POINT('',(0.,0.,0.));
#1060=CARTESIAN_POINT('',(0.152638125,-0.053736875,0.0125));
#1061=CARTESIAN_POINT('',(0.3238975,-0.0230020649886137,0.0125));
#1062=CARTESIAN_POINT('',(0.3238975,0.00260375002277249,0.0125));
#1063=CARTESIAN_POINT('',(0.3238975,0.00560375,0.0125));
#1064=CARTESIAN_POINT('',(0.3261475,0.00260375002277249,0.0125));
#1065=CARTESIAN_POINT('',(0.3283975,0.00260375002277249,0.0125));
#1066=CARTESIAN_POINT('',(0.3283975,-0.0230020649772275,0.0125));
#1067=CARTESIAN_POINT('',(0.3283975,-0.0486078799772275,0.0125));
#1068=CARTESIAN_POINT('',(0.3261475,-0.0486078799772275,0.0125));
#1069=CARTESIAN_POINT('',(0.3238975,-0.0486078799772275,0.0125));
#1070=CARTESIAN_POINT('',(0.3238975,-0.0230020649886137,0.0125));
#1071=CARTESIAN_POINT('',(0.3238975,-0.0516078799772275,0.0125));
#1072=CARTESIAN_POINT('',(0.3228975,-0.05969,0.0125));
#1073=CARTESIAN_POINT('',(0.3238975,-0.0677721200227725,0.0125));
#1074=CARTESIAN_POINT('',(0.3238975,-0.0904248100113862,0.0125));
#1075=CARTESIAN_POINT('',(0.3238975,-0.1130775,0.0125));
#1076=CARTESIAN_POINT('',(0.269097935011387,-0.1130775,0.0125));
#1077=CARTESIAN_POINT('',(0.227643430834994,-0.1130775,0.0125));
#1078=CARTESIAN_POINT('',(0.227643430834994,-0.053736875,0.0125));
#1079=CARTESIAN_POINT('',(0.227643430834994,-0.1220775,0.0125));
#1080=CARTESIAN_POINT('',(0.152638125,-0.1220775,0.0125));
#1081=CARTESIAN_POINT('',(0.3228975,-0.1220775,0.0125));
#1082=CARTESIAN_POINT('',(0.271938125,-0.173036875,0.0125));
#1083=CARTESIAN_POINT('',(0.3328975,-0.1120775,0.0125));
#1084=CARTESIAN_POINT('',(0.3328975,-0.053736875,0.0125));
#1085=CARTESIAN_POINT('',(0.3328975,0.00460375,0.0125));
#1086=CARTESIAN_POINT('',(0.271938125,0.0655631250000001,0.0125));
#1087=CARTESIAN_POINT('',(0.3228975,0.01460375,0.0125));
#1088=CARTESIAN_POINT('',(0.152638125,0.01460375,0.0125));
#1089=CARTESIAN_POINT('',(0.0895325019999999,0.01460375,0.0125));
#1090=CARTESIAN_POINT('',(0.0895325019999999,-0.053736875,0.0125));
#1091=CARTESIAN_POINT('',(0.0895325019999999,0.00851823386572198,0.0125));
#1092=CARTESIAN_POINT('',(0.08239125,0.00460375,0.0125));
#1093=CARTESIAN_POINT('',(0.0904733700227725,0.00560375,0.0125));
#1094=CARTESIAN_POINT('',(0.14430375,0.00560375,0.0125));
#1095=CARTESIAN_POINT('',(0.0934733700227725,0.00560375,0.0125));
#1096=CARTESIAN_POINT('',(0.0934733700227725,0.00785375,0.0125));
#1097=CARTESIAN_POINT('',(0.0934733700227725,0.01010375,0.0125));
#1098=CARTESIAN_POINT('',(0.14430375,0.01010375,0.0125));
#1099=CARTESIAN_POINT('',(0.195134129977228,0.01010375,0.0125));
#1100=CARTESIAN_POINT('',(0.195134129977228,0.00785375,0.0125));
#1101=CARTESIAN_POINT('',(0.195134129977228,0.00560375,0.0125));
#1102=CARTESIAN_POINT('',(0.14430375,0.00560375,0.0125));
#1103=CARTESIAN_POINT('',(0.198134129977228,0.00560375,0.0125));
#1104=CARTESIAN_POINT('',(0.20621625,0.00460375,0.0125));
#1105=CARTESIAN_POINT('',(0.214298370022772,0.00560375,0.0125));
#1106=CARTESIAN_POINT('',(0.269097935011387,0.00560375,0.0125));
#1107=CARTESIAN_POINT('',(0.14430375,0.00560375,0.0125));
#1108=CARTESIAN_POINT('',(0.14430375,0.00560375,0.005));
#1109=CARTESIAN_POINT('',(0.195134129977228,0.00560375,0.005));
#1110=CARTESIAN_POINT('',(0.0934733700227725,0.00560375,0.005));
#1111=CARTESIAN_POINT('',(0.0934733700227725,0.00560375,0.005));
#1112=CARTESIAN_POINT('',(0.0904733700227725,0.00560375,0.0125));
#1113=CARTESIAN_POINT('',(0.0904733700227725,0.00560375,0.));
#1114=CARTESIAN_POINT('',(0.14430375,0.00560375,0.));
#1115=CARTESIAN_POINT('',(0.198134129977228,0.00560375,0.));
#1116=CARTESIAN_POINT('',(0.198134129977228,0.00560375,0.0125));
#1117=CARTESIAN_POINT('',(0.195134129977228,0.00560375,0.005));
#1118=CARTESIAN_POINT('',(0.3238975,-0.0230020649886137,0.0125));
#1119=CARTESIAN_POINT('',(0.3238975,-0.0230020649886137,0.005));
#1120=CARTESIAN_POINT('',(0.3238975,-0.0486078799772275,0.005));
#1121=CARTESIAN_POINT('',(0.3238975,0.00260375002277249,0.005));
#1122=CARTESIAN_POINT('',(0.3238975,0.00260375002277249,0.005));
#1123=CARTESIAN_POINT('',(0.3238975,0.00560375,0.0125));
#1124=CARTESIAN_POINT('',(0.3238975,0.00560375,0.));
#1125=CARTESIAN_POINT('',(0.3238975,-0.0230020649886137,0.));
#1126=CARTESIAN_POINT('',(0.3238975,-0.0516078799772275,0.));
#1127=CARTESIAN_POINT('',(0.3238975,-0.0516078799772275,0.0125));
#1128=CARTESIAN_POINT('',(0.3238975,-0.0486078799772275,0.005));
#1129=CARTESIAN_POINT('',(0.152638125,0.01460375,-0.003));
#1130=CARTESIAN_POINT('',(0.0895325019999999,0.01460375,0.0155));
#1131=CARTESIAN_POINT('',(0.0895325019999999,0.01460375,-4.33680868994202E-19));
#1132=CARTESIAN_POINT('',(0.3228975,0.01460375,-0.003));
#1133=CARTESIAN_POINT('',(0.3228975,0.01460375,-4.33680868994202E-19));
#1134=CARTESIAN_POINT('',(0.152638125,0.01460375,-4.33680868994202E-19));
#1135=CARTESIAN_POINT('',(0.152638125,-0.1220775,-0.003));
#1136=CARTESIAN_POINT('',(0.227643430834994,-0.1220775,0.0155));
#1137=CARTESIAN_POINT('',(0.227643430834994,-0.1220775,-1.14818759637368E-18));
#1138=CARTESIAN_POINT('',(0.3228975,-0.1220775,9.62964972193618E-35));
#1139=CARTESIAN_POINT('',(0.3228975,-0.1220775,-3.03576608295941E-18));
#1140=CARTESIAN_POINT('',(0.3228975,-0.1220775,-0.003));
#1141=CARTESIAN_POINT('',(0.152638125,-0.053736875,0.));
#1142=CARTESIAN_POINT('',(0.0895325019999999,-0.053736875,0.));
#1143=CARTESIAN_POINT('',(0.0895325019999999,-0.0311166149941768,0.));
#1144=CARTESIAN_POINT('',(0.0895325019999999,0.00851823386572198,0.));
#1145=CARTESIAN_POINT('',(0.152638125,-0.0311166149941768,0.));
#1146=CARTESIAN_POINT('',(0.137156930834994,-0.0311166149941768,0.));
#1147=CARTESIAN_POINT('',(0.137156930834994,-0.053736875,0.));
#1148=CARTESIAN_POINT('',(0.137156930834994,-0.0501666149941769,0.));
#1149=CARTESIAN_POINT('',(0.152638125,-0.0501666149941769,0.));
#1150=CARTESIAN_POINT('',(0.180019430834994,-0.0501666149941769,0.));
#1151=CARTESIAN_POINT('',(0.180019430834994,-0.053736875,0.));
#1152=CARTESIAN_POINT('',(0.180019430834994,-0.0692166649941769,0.));
#1153=CARTESIAN_POINT('',(0.152638125,-0.0692166649941769,0.));
#1154=CARTESIAN_POINT('',(0.208594430834995,-0.0692166649941769,0.));
#1155=CARTESIAN_POINT('',(0.208594430834995,-0.053736875,0.));
#1156=CARTESIAN_POINT('',(0.208594430834995,-0.0882667149941769,0.));
#1157=CARTESIAN_POINT('',(0.152638125,-0.0882667149941769,0.));
#1158=CARTESIAN_POINT('',(0.227643430834994,-0.0882667149941769,0.));
#1159=CARTESIAN_POINT('',(0.227643430834994,-0.053736875,0.));
#1160=CARTESIAN_POINT('',(0.227643430834994,-0.1130775,0.));
#1161=CARTESIAN_POINT('',(0.269097935011387,-0.1130775,0.));
#1162=CARTESIAN_POINT('',(0.3238975,-0.1130775,0.));
#1163=CARTESIAN_POINT('',(0.3238975,-0.0904248100113862,0.));
#1164=CARTESIAN_POINT('',(0.3238975,-0.0677721200227725,0.));
#1165=CARTESIAN_POINT('',(0.3228975,-0.05969,0.));
#1166=CARTESIAN_POINT('',(0.269097935011387,0.00560375,0.));
#1167=CARTESIAN_POINT('',(0.214298370022772,0.00560375,0.));
#1168=CARTESIAN_POINT('',(0.20621625,0.00460375,0.));
#1169=CARTESIAN_POINT('',(0.08239125,0.00460375,0.));
#1170=CARTESIAN_POINT('',(0.20621625,0.00460375,0.));
#1171=CARTESIAN_POINT('',(0.20881625,0.00460375,0.));
#1172=CARTESIAN_POINT('',(0.3228975,-0.05969,0.));
#1173=CARTESIAN_POINT('',(0.3254975,-0.05969,0.));
#1174=CARTESIAN_POINT('',(0.20621625,0.00460375,-0.002));
#1175=CARTESIAN_POINT('',(0.20621625,0.00460375,-0.002));
#1176=CARTESIAN_POINT('',(0.20881625,0.00460375,-0.002));
#1177=CARTESIAN_POINT('',(0.152638125,-0.053736875,-0.002));
#1178=CARTESIAN_POINT('',(0.3228975,-0.05969,-0.002));
#1179=CARTESIAN_POINT('',(0.3228975,-0.05969,-0.002));
#1180=CARTESIAN_POINT('',(0.3254975,-0.05969,-0.002));
#1181=CARTESIAN_POINT('',(0.152638125,-0.053736875,-0.002));
#1182=CARTESIAN_POINT('',(0.08239125,0.00460375,0.0125));
#1183=CARTESIAN_POINT('',(0.0895325019999999,0.00851823386572198,0.0125));
#1184=CARTESIAN_POINT('',(0.20621625,0.00460375,0.0125));
#1185=CARTESIAN_POINT('',(0.214298370022772,0.00560375,0.0125));
#1186=CARTESIAN_POINT('',(0.269097935011387,0.00560375,0.0125));
#1187=CARTESIAN_POINT('',(0.3228975,-0.05969,0.0125));
#1188=CARTESIAN_POINT('',(0.3238975,-0.0677721200227725,0.0125));
#1189=CARTESIAN_POINT('',(0.3238975,-0.0904248100113862,0.0125));
#1190=CARTESIAN_POINT('',(0.3238975,-0.1130775,0.0125));
#1191=CARTESIAN_POINT('',(0.269097935011387,-0.1130775,0.0125));
#1192=CARTESIAN_POINT('',(0.227643430834994,-0.1130775,0.0125));
#1193=CARTESIAN_POINT('',(0.152638125,-0.053736875,-0.003));
#1194=CARTESIAN_POINT('',(0.152638125,-0.0311166149941768,-0.003));
#1195=CARTESIAN_POINT('',(0.137156930834994,-0.0311166149941768,-0.003));
#1196=CARTESIAN_POINT('',(0.0895325019999999,-0.0311166149941768,-0.003));
#1197=CARTESIAN_POINT('',(0.0895325019999999,-0.053736875,-0.003));
#1198=CARTESIAN_POINT('',(0.0895325019999999,0.01160375,-0.003));
#1199=CARTESIAN_POINT('',(0.152638125,0.01160375,-0.003));
#1200=CARTESIAN_POINT('',(0.321654859312881,0.01160375,-0.003));
#1201=CARTESIAN_POINT('',(0.330776179656441,0.00248242965644034,-0.003));
#1202=CARTESIAN_POINT('',(0.3298975,0.00336110931288069,-0.003));
#1203=CARTESIAN_POINT('',(0.3298975,-0.1120775,-0.003));
#1204=CARTESIAN_POINT('',(0.3298975,-0.110834859312881,-0.003));
#1205=CARTESIAN_POINT('',(0.320776179656441,-0.11995617965644,-0.003));
#1206=CARTESIAN_POINT('',(0.321654859312881,-0.1190775,-0.003));
#1207=CARTESIAN_POINT('',(-0.01762125,-0.1190775,-0.003));
#1208=CARTESIAN_POINT('',(0.227643430834994,-0.1190775,-0.003));
#1209=CARTESIAN_POINT('',(0.227643430834994,-0.053736875,-0.003));
#1210=CARTESIAN_POINT('',(0.227643430834994,-0.0882667149941769,-0.003));
#1211=CARTESIAN_POINT('',(0.152638125,-0.0882667149941769,-0.003));
#1212=CARTESIAN_POINT('',(0.208594430834995,-0.0882667149941769,-0.003));
#1213=CARTESIAN_POINT('',(0.208594430834995,-0.053736875,-0.003));
#1214=CARTESIAN_POINT('',(0.208594430834995,-0.0692166649941769,-0.003));
#1215=CARTESIAN_POINT('',(0.152638125,-0.0692166649941769,-0.003));
#1216=CARTESIAN_POINT('',(0.180019430834994,-0.0692166649941769,-0.003));
#1217=CARTESIAN_POINT('',(0.180019430834994,-0.053736875,-0.003));
#1218=CARTESIAN_POINT('',(0.180019430834994,-0.0501666149941769,-0.003));
#1219=CARTESIAN_POINT('',(0.152638125,-0.0501666149941769,-0.003));
#1220=CARTESIAN_POINT('',(0.137156930834994,-0.0501666149941769,-0.003));
#1221=CARTESIAN_POINT('',(0.137156930834994,-0.053736875,-0.003));
#1222=CARTESIAN_POINT('',(0.3328975,-0.053736875,-0.003));
#1223=CARTESIAN_POINT('',(0.3328975,-0.1120775,-0.003));
#1224=CARTESIAN_POINT('',(0.3328975,-0.1120775,-3.03576608295941E-18));
#1225=CARTESIAN_POINT('',(0.3328975,0.00460375,9.62964972193618E-35));
#1226=CARTESIAN_POINT('',(0.3328975,0.00460375,6.93889390390723E-18));
#1227=CARTESIAN_POINT('',(0.3328975,0.00460375,0.0125));
#1228=CARTESIAN_POINT('',(0.3328975,0.00460375,-0.003));
#1229=CARTESIAN_POINT('',(0.3228975,0.01460375,7.37257477290137E-18));
#1230=CARTESIAN_POINT('',(0.3228975,-0.1220775,-0.003));
#1231=CARTESIAN_POINT('',(0.3328975,-0.1120775,-2.84336321245904E-18));
#1232=CARTESIAN_POINT('',(0.152638125,-0.1220775,0.));
#1233=CARTESIAN_POINT('',(0.227643430834994,-0.1220775,-4.59275038549471E-18));
#1234=CARTESIAN_POINT('',(0.327446984156628,-0.133060926352733,0.0109834263527328));
#1235=CARTESIAN_POINT('',(0.152638125,0.01160375,-0.003));
#1236=CARTESIAN_POINT('',(0.0895325019999999,0.01160375,-0.003));
#1237=CARTESIAN_POINT('',(0.308301088227173,-0.0206351052639406,-0.0352388552639406));
#1238=CARTESIAN_POINT('',(0.26981680465644,-0.17091555465644,-0.003));
#1239=CARTESIAN_POINT('',(0.313690603654725,-0.104121743042692,-0.0192068963452753));
#1240=CARTESIAN_POINT('',(0.269816804656441,0.0634418046564404,-0.003));
#1241=CARTESIAN_POINT('',(0.313690603654725,-0.00335200695730759,-0.0192068963452756));
#1242=CARTESIAN_POINT('',(0.3328975,-0.053736875,0.));
#1243=CARTESIAN_POINT('',(0.113301679496433,-0.0311166149941768,0.0155));
#1244=CARTESIAN_POINT('',(0.0895325019999999,-0.0311166149941768,0.0155));
#1245=CARTESIAN_POINT('',(0.137156930834994,-0.0311166149941768,0.0155));
#1246=CARTESIAN_POINT('',(0.137156930834994,-0.0413686733271055,0.0155));
#1247=CARTESIAN_POINT('',(0.137156930834994,-0.0501666149941769,0.0155));
#1248=CARTESIAN_POINT('',(0.158168886871085,-0.0501666149941769,0.0155));
#1249=CARTESIAN_POINT('',(0.180019430834994,-0.0501666149941769,0.0155));
#1250=CARTESIAN_POINT('',(0.180019430834994,-0.0596139171366062,0.0155));
#1251=CARTESIAN_POINT('',(0.180019430834994,-0.0692166649941769,0.0155));
#1252=CARTESIAN_POINT('',(0.193897447552176,-0.0692166649941769,0.0155));
#1253=CARTESIAN_POINT('',(0.208594430834995,-0.0692166649941769,0.0155));
#1254=CARTESIAN_POINT('',(0.208594430834995,-0.0787590439956036,0.0155));
#1255=CARTESIAN_POINT('',(0.208594430834995,-0.0882667149941769,0.0155));
#1256=CARTESIAN_POINT('',(0.217977103424073,-0.0882667149941769,0.0155));
#1257=CARTESIAN_POINT('',(0.227643430834994,-0.0882667149941769,0.0155));
#1258=CARTESIAN_POINT('',(0.227643430834994,-0.103686237729788,0.0155));
#1259=CARTESIAN_POINT('',(0.0895325019999999,-0.00925213671743869,0.0155));
#1260=CARTESIAN_POINT('',(0.3261475,0.00260375002277249,0.005));
#1261=CARTESIAN_POINT('',(0.3261475,0.00260375002277249,0.005));
#1262=CARTESIAN_POINT('',(0.3283975,0.00260375002277249,0.005));
#1263=CARTESIAN_POINT('',(0.3283975,0.00260375002277249,0.005));
#1264=CARTESIAN_POINT('',(0.3261475,-0.0486078799772275,0.005));
#1265=CARTESIAN_POINT('',(0.3283975,-0.0486078799772275,0.005));
#1266=CARTESIAN_POINT('',(0.3283975,-0.0486078799772275,0.005));
#1267=CARTESIAN_POINT('',(0.3261475,-0.0486078799772275,0.005));
#1268=CARTESIAN_POINT('',(0.3283975,-0.0230020649772275,0.005));
#1269=CARTESIAN_POINT('',(0.3283975,-0.0230020649772275,0.005));
#1270=CARTESIAN_POINT('',(0.152638125,-0.053736875,0.005));
#1271=CARTESIAN_POINT('',(0.0934733700227725,0.00785375,0.005));
#1272=CARTESIAN_POINT('',(0.0934733700227725,0.00785375,0.005));
#1273=CARTESIAN_POINT('',(0.0934733700227725,0.01010375,0.005));
#1274=CARTESIAN_POINT('',(0.0934733700227725,0.01010375,0.005));
#1275=CARTESIAN_POINT('',(0.195134129977228,0.00785375,0.005));
#1276=CARTESIAN_POINT('',(0.195134129977228,0.01010375,0.005));
#1277=CARTESIAN_POINT('',(0.195134129977228,0.01010375,0.005));
#1278=CARTESIAN_POINT('',(0.195134129977228,0.00785375,0.005));
#1279=CARTESIAN_POINT('',(0.14430375,0.01010375,0.005));
#1280=CARTESIAN_POINT('',(0.14430375,0.01010375,0.005));
#1281=CARTESIAN_POINT('',(0.152638125,-0.053736875,0.005));
#1282=MECHANICAL_DESIGN_GEOMETRIC_PRESENTATION_REPRESENTATION('',(#791),
#1283);
#1283=(
GEOMETRIC_REPRESENTATION_CONTEXT(3)
GLOBAL_UNCERTAINTY_ASSIGNED_CONTEXT((#1284))
GLOBAL_UNIT_ASSIGNED_CONTEXT((#1287,#1286,#1285))
REPRESENTATION_CONTEXT('Bottom1','TOP_LEVEL_ASSEMBLY_PART')
);
#1284=UNCERTAINTY_MEASURE_WITH_UNIT(LENGTH_MEASURE(1.E-8),#1287,
'DISTANCE_ACCURACY_VALUE','Maximum Tolerance applied to model');
#1285=(
NAMED_UNIT(*)
SI_UNIT($,.STERADIAN.)
SOLID_ANGLE_UNIT()
);
#1286=(
NAMED_UNIT(*)
PLANE_ANGLE_UNIT()
SI_UNIT($,.RADIAN.)
);
#1287=(
LENGTH_UNIT()
NAMED_UNIT(*)
SI_UNIT($,.METRE.)
);
#1288=PRODUCT_DEFINITION_SHAPE('','',#1289);
#1289=PRODUCT_DEFINITION('','',#1291,#1290);
#1290=PRODUCT_DEFINITION_CONTEXT('',#1297,'design');
#1291=PRODUCT_DEFINITION_FORMATION_WITH_SPECIFIED_SOURCE('','',#1293,
 .NOT_KNOWN.);
#1292=PRODUCT_RELATED_PRODUCT_CATEGORY('','',(#1293));
#1293=PRODUCT('Bottom1','Bottom1','Bottom1',(#1295));
#1294=PRODUCT_CATEGORY('','');
#1295=PRODUCT_CONTEXT('',#1297,'mechanical');
#1296=APPLICATION_PROTOCOL_DEFINITION('international standard',
'ap242_managed_model_based_3d_engineering',2020,#1297);
#1297=APPLICATION_CONTEXT('managed model based 3d engineering');
ENDSEC;
END-ISO-10303-21;
